<svg width="92" height="24" viewBox="0 0 92 24" fill="none" xmlns="http://www.w3.org/2000/svg">
<g clip-path="url(#clip0_1169_8330)">
<path d="M10.0354 0H0V24L10.0354 0Z" fill="#3A3A3A"/>
<path d="M17.0977 0H27.12V24L17.0977 0Z" fill="#3A3A3A"/>
<path d="M13.5665 8.8457L19.9539 24.0002H15.7632L13.8542 19.1753H9.17969L13.5665 8.8457Z" fill="#3A3A3A"/>
<path d="M43.4912 15.2628L44.6745 18.6559C44.7137 18.7409 44.7726 18.7801 44.8772 18.7801H47.1523C47.2765 18.7801 47.2961 18.7213 47.2765 18.5971L42.5759 5.54121C42.5563 5.43661 42.5367 5.41699 42.4321 5.41699H39.6078C39.5293 5.41699 39.4835 5.47583 39.4835 5.56082C39.4443 6.24728 39.3855 6.45649 39.3005 6.65916L35.1098 18.5774C35.0902 18.7213 35.136 18.7801 35.2536 18.7801H37.2869C37.4111 18.7801 37.4699 18.7409 37.5157 18.6167L38.6336 15.2628H43.4912ZM39.2809 13.0465C39.8954 11.1898 40.7061 8.81007 41.033 7.45023H41.0526C41.4579 8.87545 42.4124 11.6997 42.8439 13.0465H39.2809Z" fill="#3A3A3A"/>
<path d="M53.3173 18.9826C54.5398 18.9826 55.8408 18.7603 57.1615 18.1915C57.2661 18.1523 57.2857 18.1065 57.2857 18.0084C57.2465 17.6423 57.2007 17.1128 57.2007 16.7074V4.41651C57.2007 4.33806 57.2007 4.29883 57.1026 4.29883H54.8864C54.8014 4.29883 54.7621 4.33806 54.7621 4.44266V8.60719C54.4156 8.56797 54.1737 8.54835 53.8861 8.54835C50.3099 8.54835 48.1133 10.9085 48.1133 13.857C48.1133 17.2762 50.3688 18.9826 53.3173 18.9826ZM54.7621 16.7074C54.396 16.8251 53.9907 16.8709 53.5788 16.8709C51.9574 16.8709 50.6303 15.9556 50.6303 13.7328C50.6303 11.7649 51.9967 10.6012 53.8076 10.6012C54.1737 10.6012 54.4941 10.6404 54.7621 10.745V16.7074Z" fill="#3A3A3A"/>
<path d="M64.3566 8.54883C61.3034 8.54883 59.414 10.8893 59.414 13.779C59.414 16.3614 60.9177 18.983 64.3108 18.983C67.1809 18.983 69.1945 16.8714 69.1945 13.7136C69.1945 10.9286 67.4881 8.54883 64.3566 8.54883ZM64.2323 10.6017C65.9583 10.6017 66.6905 12.0857 66.6905 13.779C66.6905 15.8711 65.6118 16.9106 64.3566 16.9106C62.8071 16.9106 61.8918 15.6096 61.8918 13.7332C61.8918 11.8046 62.866 10.6017 64.2323 10.6017Z" fill="#3A3A3A"/>
<path d="M71.4875 4.29883C71.4025 4.29883 71.3437 4.33806 71.3437 4.44266V18.3549C71.3437 18.4138 71.4025 18.5184 71.4875 18.538C72.4616 18.8387 73.4815 18.9826 74.5341 18.9826C77.548 18.9826 80.4769 17.1128 80.4769 13.347C80.4769 10.6208 78.6071 8.54835 75.6782 8.54835C75.0048 8.54835 74.3772 8.65296 73.828 8.83601L73.8019 4.46227C73.8019 4.31844 73.7626 4.29883 73.6188 4.29883H71.4875ZM77.9729 13.5955C77.9729 15.851 76.43 16.9101 74.7629 16.9101C74.4164 16.9101 74.1091 16.8905 73.828 16.8055V10.8692C74.1484 10.745 74.5341 10.6404 75.2467 10.6404C76.855 10.6404 77.9729 11.6603 77.9729 13.5955Z" fill="#3A3A3A"/>
<path d="M88.7463 14.3282C89.7401 14.3282 90.5573 14.3086 90.8384 14.2432C90.943 14.2236 90.9822 14.1844 91.0018 14.0994C91.0607 13.8771 91.0868 13.4129 91.0868 12.8441C91.0868 10.9089 89.9231 8.54883 86.9158 8.54883C83.843 8.54883 82.1367 11.0528 82.1367 13.8771C82.1367 16.381 83.4573 18.983 87.1577 18.983C88.5437 18.983 89.4393 18.7608 90.2108 18.3946C90.2892 18.3554 90.3285 18.29 90.3285 18.1724V16.4791C90.3285 16.381 90.2696 16.3614 90.2108 16.4006C89.4393 16.7275 88.6025 16.891 87.6872 16.891C85.6148 16.891 84.6733 15.7469 84.6145 14.3282H88.7463ZM84.6145 12.5761C84.7779 11.5823 85.4055 10.5036 86.8112 10.5036C88.3606 10.5036 88.7659 11.8046 88.7659 12.393C88.7659 12.4126 88.7659 12.4976 88.7659 12.5565C88.6809 12.5761 88.4194 12.5761 87.648 12.5761H84.6145Z" fill="#3A3A3A"/>
</g>
<defs>
<clipPath id="clip0_1169_8330">
<rect width="91.088" height="24" fill="white"/>
</clipPath>
</defs>
</svg>
