<svg width="243" height="56" viewBox="0 0 243 56" fill="none" xmlns="http://www.w3.org/2000/svg">
<path d="M11.9039 46.2079C8.31991 46.2079 5.43991 45.3973 3.26391 43.7759C1.08791 42.1119 -9.36985e-05 39.8079 -9.36985e-05 36.8639C-9.36985e-05 33.9199 0.91724 31.6159 2.75191 29.9519C4.58657 28.2879 7.38124 27.0933 11.1359 26.3679L22.4639 24.1279C22.4639 21.6959 21.9092 19.8826 20.7999 18.6879C19.6906 17.4506 18.0479 16.8319 15.8719 16.8319C13.9092 16.8319 12.3519 17.3013 11.1999 18.2399C10.0906 19.1359 9.32257 20.4373 8.89591 22.1439L0.575906 21.7599C1.25857 18.1333 2.92257 15.3599 5.56791 13.4399C8.21324 11.4773 11.6479 10.4959 15.8719 10.4959C20.7359 10.4959 24.4052 11.7333 26.8799 14.2079C29.3972 16.6399 30.6559 20.1386 30.6559 24.7039V37.1199C30.6559 38.0159 30.8052 38.6346 31.1039 38.9759C31.4452 39.3173 31.9359 39.4879 32.5759 39.4879H33.6639V45.4399C33.4079 45.5253 32.9812 45.5893 32.3839 45.6319C31.8292 45.6746 31.2532 45.6959 30.6559 45.6959C29.2479 45.6959 27.9892 45.4826 26.8799 45.0559C25.7706 44.5866 24.9172 43.7973 24.3199 42.6879C23.7226 41.5359 23.4239 39.9786 23.4239 38.0159L24.1279 38.5279C23.7866 40.0213 23.0399 41.3653 21.8879 42.5599C20.7786 43.7119 19.3706 44.6079 17.6639 45.2479C15.9572 45.8879 14.0372 46.2079 11.9039 46.2079ZM13.5679 40.2559C15.4026 40.2559 16.9812 39.8933 18.3039 39.1679C19.6266 38.4426 20.6506 37.4399 21.3759 36.1599C22.1012 34.8799 22.4639 33.3653 22.4639 31.6159V29.6959L13.6319 31.4879C11.7972 31.8719 10.4746 32.4479 9.66391 33.2159C8.89591 33.9413 8.51191 34.9013 8.51191 36.0959C8.51191 37.4186 8.93857 38.4426 9.79191 39.1679C10.6879 39.8933 11.9466 40.2559 13.5679 40.2559ZM37.6089 45.4399V-6.10352e-05H45.8009V26.6879L59.8169 11.2639H69.9289L56.5529 25.4719L70.3769 45.4399H61.1609L51.1769 30.3359L45.8009 36.0319V45.4399H37.6089ZM87.3674 45.4399C83.9541 45.4399 81.4367 44.6506 79.8154 43.0719C78.2367 41.4933 77.4474 39.0186 77.4474 35.6479V3.26394H85.6394V34.8799C85.6394 36.4586 85.9807 37.5679 86.6634 38.2079C87.3461 38.8053 88.4127 39.1039 89.8634 39.1039H94.6634V45.4399H87.3674ZM72.0714 17.5999V11.2639H94.6634V17.5999H72.0714ZM109.404 46.2079C105.82 46.2079 102.94 45.3973 100.764 43.7759C98.5879 42.1119 97.4999 39.8079 97.4999 36.8639C97.4999 33.9199 98.4172 31.6159 100.252 29.9519C102.087 28.2879 104.881 27.0933 108.636 26.3679L119.964 24.1279C119.964 21.6959 119.409 19.8826 118.3 18.6879C117.191 17.4506 115.548 16.8319 113.372 16.8319C111.409 16.8319 109.852 17.3013 108.7 18.2399C107.591 19.1359 106.823 20.4373 106.396 22.1439L98.0759 21.7599C98.7586 18.1333 100.423 15.3599 103.068 13.4399C105.713 11.4773 109.148 10.4959 113.372 10.4959C118.236 10.4959 121.905 11.7333 124.38 14.2079C126.897 16.6399 128.156 20.1386 128.156 24.7039V37.1199C128.156 38.0159 128.305 38.6346 128.604 38.9759C128.945 39.3173 129.436 39.4879 130.076 39.4879H131.164V45.4399C130.908 45.5253 130.481 45.5893 129.884 45.6319C129.329 45.6746 128.753 45.6959 128.156 45.6959C126.748 45.6959 125.489 45.4826 124.38 45.0559C123.271 44.5866 122.417 43.7973 121.82 42.6879C121.223 41.5359 120.924 39.9786 120.924 38.0159L121.628 38.5279C121.287 40.0213 120.54 41.3653 119.388 42.5599C118.279 43.7119 116.871 44.6079 115.164 45.2479C113.457 45.8879 111.537 46.2079 109.404 46.2079ZM111.068 40.2559C112.903 40.2559 114.481 39.8933 115.804 39.1679C117.127 38.4426 118.151 37.4399 118.876 36.1599C119.601 34.8799 119.964 33.3653 119.964 31.6159V29.6959L111.132 31.4879C109.297 31.8719 107.975 32.4479 107.164 33.2159C106.396 33.9413 106.012 34.9013 106.012 36.0959C106.012 37.4186 106.439 38.4426 107.292 39.1679C108.188 39.8933 109.447 40.2559 111.068 40.2559ZM150.234 55.0399V11.2639H158.106L158.298 18.5599L157.466 18.1759C158.319 15.6586 159.706 13.7599 161.626 12.4799C163.589 11.1573 165.871 10.4959 168.474 10.4959C171.717 10.4959 174.405 11.3066 176.538 12.9279C178.714 14.5493 180.335 16.7039 181.402 19.3919C182.469 22.0799 183.002 25.0666 183.002 28.3519C183.002 31.6373 182.447 34.6239 181.338 37.3119C180.271 39.9999 178.65 42.1546 176.474 43.7759C174.341 45.3973 171.653 46.2079 168.41 46.2079C166.703 46.2079 165.103 45.9093 163.61 45.3119C162.159 44.7146 160.901 43.8613 159.834 42.7519C158.81 41.6426 158.085 40.3413 157.658 38.8479L158.426 38.2079V55.0399H150.234ZM166.49 39.5519C168.965 39.5519 170.906 38.5706 172.314 36.6079C173.765 34.6026 174.49 31.8506 174.49 28.3519C174.49 24.8533 173.765 22.1226 172.314 20.1599C170.906 18.1546 168.965 17.1519 166.49 17.1519C164.826 17.1519 163.397 17.5786 162.202 18.4319C161.007 19.2426 160.069 20.4799 159.386 22.1439C158.746 23.8079 158.426 25.8773 158.426 28.3519C158.426 30.8266 158.746 32.8959 159.386 34.5599C160.026 36.2239 160.943 37.4826 162.138 38.3359C163.375 39.1466 164.826 39.5519 166.49 39.5519ZM188.359 45.4399V11.2639H196.039L196.359 20.7359L195.655 20.6079C196.167 17.3226 197.127 14.9546 198.535 13.5039C199.986 12.0106 201.948 11.2639 204.423 11.2639H207.559V18.3039H204.359C202.61 18.3039 201.159 18.5599 200.007 19.0719C198.855 19.5839 197.98 20.3946 197.383 21.5039C196.828 22.5706 196.551 23.9786 196.551 25.7279V45.4399H188.359ZM225.832 46.2079C222.461 46.2079 219.496 45.4826 216.936 44.0319C214.419 42.5386 212.456 40.4479 211.048 37.7599C209.683 35.0719 209 31.9359 209 28.3519C209 24.7253 209.683 21.5893 211.048 18.9439C212.456 16.2559 214.419 14.1866 216.936 12.7359C219.496 11.2426 222.461 10.4959 225.832 10.4959C229.203 10.4959 232.147 11.2426 234.664 12.7359C237.181 14.1866 239.123 16.2559 240.488 18.9439C241.896 21.5893 242.6 24.7253 242.6 28.3519C242.6 31.9359 241.896 35.0719 240.488 37.7599C239.123 40.4479 237.181 42.5386 234.664 44.0319C232.147 45.4826 229.203 46.2079 225.832 46.2079ZM225.832 39.5519C228.477 39.5519 230.504 38.5706 231.912 36.6079C233.363 34.6453 234.088 31.8933 234.088 28.3519C234.088 24.8533 233.363 22.1226 231.912 20.1599C230.504 18.1546 228.477 17.1519 225.832 17.1519C223.187 17.1519 221.139 18.1546 219.688 20.1599C218.237 22.1226 217.512 24.8533 217.512 28.3519C217.512 31.8933 218.237 34.6453 219.688 36.6079C221.139 38.5706 223.187 39.5519 225.832 39.5519Z" fill="white"/>
<path d="M139.947 45.8036C138.826 45.8036 137.864 45.4021 137.061 44.599C136.258 43.796 135.856 42.8339 135.856 41.7127C135.856 40.5915 136.258 39.6293 137.061 38.8263C137.864 38.0233 138.826 37.6218 139.947 37.6218C141.068 37.6218 142.03 38.0233 142.833 38.8263C143.636 39.6293 144.038 40.5915 144.038 41.7127C144.038 42.4551 143.849 43.1369 143.47 43.7581C143.106 44.3793 142.614 44.8793 141.993 45.2581C141.386 45.6218 140.705 45.8036 139.947 45.8036Z" fill="#4BAAAD"/>
</svg>
