<svg width="202" height="45" viewBox="0 0 202 45" fill="none" xmlns="http://www.w3.org/2000/svg">
<path d="M9.52327 36.9665C6.65607 36.9665 4.35207 36.3179 2.61127 35.0209C0.870466 33.6897 6.54518e-05 31.8465 6.54518e-05 29.4913C6.54518e-05 27.1361 0.733932 25.2929 2.20167 23.9616C3.6694 22.6304 5.90513 21.6747 8.90887 21.0945L17.9713 19.3025C17.9713 17.3568 17.5275 15.9062 16.6401 14.9504C15.7526 13.9606 14.4385 13.4656 12.6977 13.4656C11.1275 13.4656 9.88167 13.8411 8.96007 14.592C8.0726 15.3088 7.4582 16.3499 7.11687 17.7152L0.460865 17.4081C1.007 14.5067 2.3382 12.288 4.45447 10.7521C6.57073 9.18192 9.31847 8.39685 12.6977 8.39685C16.5889 8.39685 19.5243 9.38672 21.5041 11.3664C23.5179 13.312 24.5249 16.111 24.5249 19.7633V29.6961C24.5249 30.4129 24.6443 30.9078 24.8833 31.1809C25.1563 31.4539 25.5489 31.5905 26.0609 31.5905H26.9313V36.3521C26.7265 36.4203 26.3851 36.4715 25.9073 36.5057C25.4635 36.5398 25.0027 36.5569 24.5249 36.5569C23.3985 36.5569 22.3915 36.3862 21.5041 36.0449C20.6166 35.6694 19.9339 35.0379 19.4561 34.1505C18.9782 33.2289 18.7393 31.983 18.7393 30.4129L19.3025 30.8225C19.0294 32.0171 18.4321 33.0923 17.5105 34.0481C16.623 34.9697 15.4966 35.6865 14.1313 36.1985C12.7659 36.7105 11.2299 36.9665 9.52327 36.9665ZM10.8545 32.2049C12.3222 32.2049 13.5851 31.9147 14.6433 31.3345C15.7014 30.7542 16.5206 29.9521 17.1009 28.9281C17.6811 27.9041 17.9713 26.6923 17.9713 25.2929V23.7569L10.9057 25.1905C9.43793 25.4977 8.3798 25.9585 7.73127 26.5728C7.11687 27.1531 6.80967 27.9211 6.80967 28.8769C6.80967 29.935 7.151 30.7542 7.83367 31.3345C8.55047 31.9147 9.5574 32.2049 10.8545 32.2049ZM30.0873 36.3521V4.82864e-05H36.6409V21.3504L47.8537 9.01125H55.9433L45.2425 20.3777L56.3017 36.3521H48.9289L40.9417 24.2688L36.6409 28.8257V36.3521H30.0873ZM69.8941 36.3521C67.1634 36.3521 65.1495 35.7206 63.8525 34.4577C62.5895 33.1947 61.9581 31.215 61.9581 28.5185V2.61125H68.5117V27.9041C68.5117 29.167 68.7847 30.0545 69.3309 30.5665C69.877 31.0443 70.7303 31.2833 71.8909 31.2833H75.7309V36.3521H69.8941ZM57.6573 14.08V9.01125H75.7309V14.08H57.6573ZM87.5233 36.9665C84.6561 36.9665 82.3521 36.3179 80.6113 35.0209C78.8705 33.6897 78.0001 31.8465 78.0001 29.4913C78.0001 27.1361 78.7339 25.2929 80.2017 23.9616C81.6694 22.6304 83.9051 21.6747 86.9089 21.0945L95.9713 19.3025C95.9713 17.3568 95.5275 15.9062 94.6401 14.9504C93.7526 13.9606 92.4385 13.4656 90.6977 13.4656C89.1275 13.4656 87.8817 13.8411 86.9601 14.592C86.0726 15.3088 85.4582 16.3499 85.1169 17.7152L78.4609 17.4081C79.007 14.5067 80.3382 12.288 82.4545 10.7521C84.5707 9.18192 87.3185 8.39685 90.6977 8.39685C94.5889 8.39685 97.5243 9.38672 99.5041 11.3664C101.518 13.312 102.525 16.111 102.525 19.7633V29.6961C102.525 30.4129 102.644 30.9078 102.883 31.1809C103.156 31.4539 103.549 31.5905 104.061 31.5905H104.931V36.3521C104.726 36.4203 104.385 36.4715 103.907 36.5057C103.464 36.5398 103.003 36.5569 102.525 36.5569C101.398 36.5569 100.392 36.3862 99.5041 36.0449C98.6166 35.6694 97.9339 35.0379 97.4561 34.1505C96.9782 33.2289 96.7393 31.983 96.7393 30.4129L97.3025 30.8225C97.0294 32.0171 96.4321 33.0923 95.5105 34.0481C94.623 34.9697 93.4966 35.6865 92.1313 36.1985C90.7659 36.7105 89.2299 36.9665 87.5233 36.9665ZM88.8545 32.2049C90.3222 32.2049 91.5851 31.9147 92.6433 31.3345C93.7014 30.7542 94.5206 29.9521 95.1009 28.9281C95.6811 27.9041 95.9713 26.6923 95.9713 25.2929V23.7569L88.9057 25.1905C87.4379 25.4977 86.3798 25.9585 85.7313 26.5728C85.1169 27.1531 84.8097 27.9211 84.8097 28.8769C84.8097 29.935 85.151 30.7542 85.8337 31.3345C86.5505 31.9147 87.5574 32.2049 88.8545 32.2049ZM127.237 44.0321V9.01125H133.535L133.688 14.848L133.023 14.5408C133.706 12.527 134.815 11.008 136.351 9.98405C137.921 8.92592 139.747 8.39685 141.829 8.39685C144.423 8.39685 146.574 9.04538 148.28 10.3424C150.021 11.6395 151.318 13.3632 152.172 15.5137C153.025 17.6641 153.452 20.0534 153.452 22.6816C153.452 25.3099 153.008 27.6993 152.12 29.8497C151.267 32.0001 149.97 33.7238 148.229 35.0209C146.523 36.3179 144.372 36.9665 141.778 36.9665C140.413 36.9665 139.133 36.7275 137.938 36.2497C136.778 35.7718 135.771 35.0891 134.917 34.2017C134.098 33.3142 133.518 32.2731 133.176 31.0785L133.791 30.5665V44.0321H127.237ZM140.242 31.6417C142.222 31.6417 143.775 30.8566 144.901 29.2865C146.062 27.6822 146.642 25.4806 146.642 22.6816C146.642 19.8827 146.062 17.6982 144.901 16.128C143.775 14.5238 142.222 13.7216 140.242 13.7216C138.911 13.7216 137.767 14.063 136.812 14.7456C135.856 15.3942 135.105 16.384 134.559 17.7152C134.047 19.0464 133.791 20.7019 133.791 22.6816C133.791 24.6614 134.047 26.3169 134.559 27.6481C135.071 28.9793 135.805 29.9862 136.76 30.6689C137.75 31.3174 138.911 31.6417 140.242 31.6417ZM157.737 36.3521V9.01125H163.881L164.137 16.5889L163.574 16.4864C163.984 13.8582 164.752 11.9638 165.878 10.8032C167.039 9.60858 168.609 9.01125 170.588 9.01125H173.097V14.6432H170.537C169.138 14.6432 167.977 14.848 167.056 15.2576C166.134 15.6672 165.434 16.3158 164.956 17.2032C164.513 18.0566 164.291 19.183 164.291 20.5824V36.3521H157.737ZM187.716 36.9665C185.019 36.9665 182.647 36.3862 180.599 35.2257C178.585 34.031 177.015 32.3585 175.888 30.2081C174.796 28.0577 174.25 25.5488 174.25 22.6816C174.25 19.7803 174.796 17.2715 175.888 15.1552C177.015 13.0048 178.585 11.3494 180.599 10.1888C182.647 8.99418 185.019 8.39685 187.716 8.39685C190.412 8.39685 192.767 8.99418 194.781 10.1888C196.795 11.3494 198.348 13.0048 199.44 15.1552C200.567 17.2715 201.13 19.7803 201.13 22.6816C201.13 25.5488 200.567 28.0577 199.44 30.2081C198.348 32.3585 196.795 34.031 194.781 35.2257C192.767 36.3862 190.412 36.9665 187.716 36.9665ZM187.716 31.6417C189.832 31.6417 191.453 30.8566 192.58 29.2865C193.74 27.7163 194.32 25.5147 194.32 22.6816C194.32 19.8827 193.74 17.6982 192.58 16.128C191.453 14.5238 189.832 13.7216 187.716 13.7216C185.599 13.7216 183.961 14.5238 182.8 16.128C181.64 17.6982 181.06 19.8827 181.06 22.6816C181.06 25.5147 181.64 27.7163 182.8 29.2865C183.961 30.8566 185.599 31.6417 187.716 31.6417Z" fill="white"/>
<path d="M115.485 36.7884C114.14 36.7884 112.985 36.3066 112.021 35.343C111.058 34.3793 110.576 33.2248 110.576 31.8793C110.576 30.5339 111.058 29.3793 112.021 28.4157C112.985 27.4521 114.14 26.9702 115.485 26.9702C116.831 26.9702 117.985 27.4521 118.949 28.4157C119.912 29.3793 120.394 30.5339 120.394 31.8793C120.394 32.7702 120.167 33.5884 119.712 34.3339C119.276 35.0793 118.685 35.6793 117.94 36.1339C117.212 36.5702 116.394 36.7884 115.485 36.7884Z" fill="#4BAAAD"/>
</svg>
