<svg width="193" height="45" viewBox="0 0 193 45" fill="none" xmlns="http://www.w3.org/2000/svg">
<path d="M9.5232 36.9664C6.656 36.9664 4.352 36.3179 2.6112 35.0208C0.8704 33.6896 0 31.8464 0 29.4912C0 27.136 0.733867 25.2928 2.2016 23.9616C3.66933 22.6304 5.90507 21.6747 8.9088 21.0944L17.9712 19.3024C17.9712 17.3568 17.5275 15.9061 16.64 14.9504C15.7525 13.9605 14.4384 13.4656 12.6976 13.4656C11.1275 13.4656 9.8816 13.8411 8.96 14.592C8.07253 15.3088 7.45813 16.3499 7.1168 17.7152L0.4608 17.408C1.00693 14.5067 2.33813 12.288 4.4544 10.752C6.57067 9.18187 9.3184 8.3968 12.6976 8.3968C16.5888 8.3968 19.5243 9.38667 21.504 11.3664C23.5179 13.312 24.5248 16.1109 24.5248 19.7632V29.696C24.5248 30.4128 24.6443 30.9077 24.8832 31.1808C25.1563 31.4539 25.5488 31.5904 26.0608 31.5904H26.9312V36.352C26.7264 36.4203 26.3851 36.4715 25.9072 36.5056C25.4635 36.5397 25.0027 36.5568 24.5248 36.5568C23.3984 36.5568 22.3915 36.3861 21.504 36.0448C20.6165 35.6693 19.9339 35.0379 19.456 34.1504C18.9781 33.2288 18.7392 31.9829 18.7392 30.4128L19.3024 30.8224C19.0293 32.0171 18.432 33.0923 17.5104 34.048C16.6229 34.9696 15.4965 35.6864 14.1312 36.1984C12.7659 36.7104 11.2299 36.9664 9.5232 36.9664ZM10.8544 32.2048C12.3221 32.2048 13.5851 31.9147 14.6432 31.3344C15.7013 30.7541 16.5205 29.952 17.1008 28.928C17.6811 27.904 17.9712 26.6923 17.9712 25.2928V23.7568L10.9056 25.1904C9.43787 25.4976 8.37973 25.9584 7.7312 26.5728C7.1168 27.1531 6.8096 27.9211 6.8096 28.8768C6.8096 29.9349 7.15093 30.7541 7.8336 31.3344C8.5504 31.9147 9.55733 32.2048 10.8544 32.2048Z" fill="black"/>
<path d="M29.3872 36.352V0H35.9408V21.3504L47.1536 9.0112H55.2432L44.5424 20.3776L55.6016 36.352H48.2288L40.2416 24.2688L35.9408 28.8256V36.352H29.3872Z" fill="black"/>
<path d="M68.494 36.352C65.7633 36.352 63.7495 35.7205 62.4524 34.4576C61.1895 33.1947 60.558 31.2149 60.558 28.5184V2.6112H67.1116V27.904C67.1116 29.1669 67.3847 30.0544 67.9308 30.5664C68.4769 31.0443 69.3303 31.2832 70.4908 31.2832H74.3308V36.352H68.494ZM56.2572 14.08V9.0112H74.3308V14.08H56.2572Z" fill="black"/>
<path d="M85.4232 36.9664C82.556 36.9664 80.252 36.3179 78.5112 35.0208C76.7704 33.6896 75.9 31.8464 75.9 29.4912C75.9 27.136 76.6339 25.2928 78.1016 23.9616C79.5693 22.6304 81.8051 21.6747 84.8088 21.0944L93.8712 19.3024C93.8712 17.3568 93.4275 15.9061 92.54 14.9504C91.6525 13.9605 90.3384 13.4656 88.5976 13.4656C87.0275 13.4656 85.7816 13.8411 84.86 14.592C83.9725 15.3088 83.3581 16.3499 83.0168 17.7152L76.3608 17.408C76.9069 14.5067 78.2381 12.288 80.3544 10.752C82.4707 9.18187 85.2184 8.3968 88.5976 8.3968C92.4888 8.3968 95.4243 9.38667 97.404 11.3664C99.4179 13.312 100.425 16.1109 100.425 19.7632V29.696C100.425 30.4128 100.544 30.9077 100.783 31.1808C101.056 31.4539 101.449 31.5904 101.961 31.5904H102.831V36.352C102.626 36.4203 102.285 36.4715 101.807 36.5056C101.363 36.5397 100.903 36.5568 100.425 36.5568C99.2984 36.5568 98.2915 36.3861 97.404 36.0448C96.5165 35.6693 95.8339 35.0379 95.356 34.1504C94.8781 33.2288 94.6392 31.9829 94.6392 30.4128L95.2024 30.8224C94.9293 32.0171 94.332 33.0923 93.4104 34.048C92.5229 34.9696 91.3965 35.6864 90.0312 36.1984C88.6659 36.7104 87.1299 36.9664 85.4232 36.9664ZM86.7544 32.2048C88.2221 32.2048 89.4851 31.9147 90.5432 31.3344C91.6013 30.7541 92.4205 29.952 93.0008 28.928C93.5811 27.904 93.8712 26.6923 93.8712 25.2928V23.7568L86.8056 25.1904C85.3379 25.4976 84.2797 25.9584 83.6312 26.5728C83.0168 27.1531 82.7096 27.9211 82.7096 28.8768C82.7096 29.9349 83.0509 30.7541 83.7336 31.3344C84.4504 31.9147 85.4573 32.2048 86.7544 32.2048Z" fill="black"/>
<path d="M111.61 36.8065C110.209 36.8065 109.006 36.3047 108.002 35.3009C106.999 34.2971 106.497 33.0944 106.497 31.6929C106.497 30.2914 106.999 29.0887 108.002 28.085C109.006 27.0812 110.209 26.5793 111.61 26.5793C113.012 26.5793 114.214 27.0812 115.218 28.085C116.222 29.0887 116.724 30.2914 116.724 31.6929C116.724 32.6209 116.487 33.4732 116.014 34.2497C115.559 35.0262 114.944 35.6512 114.167 36.1247C113.41 36.5793 112.557 36.8065 111.61 36.8065Z" fill="#4BAAAD"/>
<path d="M120.362 44.032V9.0112H126.66L126.813 14.848L126.148 14.5408C126.83 12.5269 127.94 11.008 129.476 9.984C131.046 8.92587 132.872 8.3968 134.954 8.3968C137.548 8.3968 139.699 9.04534 141.405 10.3424C143.146 11.6395 144.443 13.3632 145.297 15.5136C146.15 17.664 146.577 20.0533 146.577 22.6816C146.577 25.3099 146.133 27.6992 145.245 29.8496C144.392 32 143.095 33.7237 141.354 35.0208C139.648 36.3179 137.497 36.9664 134.903 36.9664C133.538 36.9664 132.258 36.7275 131.063 36.2496C129.902 35.7717 128.896 35.0891 128.042 34.2016C127.223 33.3141 126.643 32.2731 126.301 31.0784L126.916 30.5664V44.032H120.362ZM133.367 31.6416C135.347 31.6416 136.9 30.8565 138.026 29.2864C139.187 27.6821 139.767 25.4805 139.767 22.6816C139.767 19.8827 139.187 17.6981 138.026 16.128C136.9 14.5237 135.347 13.7216 133.367 13.7216C132.036 13.7216 130.892 14.0629 129.937 14.7456C128.981 15.3941 128.23 16.384 127.684 17.7152C127.172 19.0464 126.916 20.7019 126.916 22.6816C126.916 24.6613 127.172 26.3168 127.684 27.648C128.196 28.9792 128.93 29.9861 129.885 30.6688C130.875 31.3173 132.036 31.6416 133.367 31.6416Z" fill="black"/>
<path d="M150.162 36.352V9.0112H156.306L156.562 16.5888L155.999 16.4864C156.409 13.8581 157.177 11.9637 158.303 10.8032C159.464 9.60853 161.034 9.0112 163.013 9.0112H165.522V14.6432H162.962C161.563 14.6432 160.402 14.848 159.481 15.2576C158.559 15.6672 157.859 16.3157 157.381 17.2032C156.938 18.0565 156.716 19.1829 156.716 20.5824V36.352H150.162Z" fill="black"/>
<path d="M179.441 36.9664C176.744 36.9664 174.372 36.3861 172.324 35.2256C170.31 34.0309 168.74 32.3584 167.613 30.208C166.521 28.0576 165.975 25.5488 165.975 22.6816C165.975 19.7803 166.521 17.2715 167.613 15.1552C168.74 13.0048 170.31 11.3493 172.324 10.1888C174.372 8.99413 176.744 8.3968 179.441 8.3968C182.137 8.3968 184.492 8.99413 186.506 10.1888C188.52 11.3493 190.073 13.0048 191.165 15.1552C192.292 17.2715 192.855 19.7803 192.855 22.6816C192.855 25.5488 192.292 28.0576 191.165 30.208C190.073 32.3584 188.52 34.0309 186.506 35.2256C184.492 36.3861 182.137 36.9664 179.441 36.9664ZM179.441 31.6416C181.557 31.6416 183.178 30.8565 184.305 29.2864C185.465 27.7163 186.045 25.5147 186.045 22.6816C186.045 19.8827 185.465 17.6981 184.305 16.128C183.178 14.5237 181.557 13.7216 179.441 13.7216C177.324 13.7216 175.686 14.5237 174.525 16.128C173.365 17.6981 172.785 19.8827 172.785 22.6816C172.785 25.5147 173.365 27.7163 174.525 29.2864C175.686 30.8565 177.324 31.6416 179.441 31.6416Z" fill="black"/>
</svg>
