<svg width="41" height="32" viewBox="0 0 41 32" fill="none" xmlns="http://www.w3.org/2000/svg">
<g clip-path="url(#clip0_1169_8361)">
<path d="M32.8709 20.6583C32.8304 20.6989 32.9316 20.7394 32.9114 20.7394C32.9114 20.8811 32.9114 21.0229 32.9519 21.1039C32.9924 21.1444 33.0734 21.1849 33.0936 21.1444C33.0936 21.1039 33.1747 21.0229 33.1949 21.0027C33.2152 20.9824 33.1949 20.9419 33.1747 20.9824C33.1139 21.0432 33.0936 21.0027 33.0531 20.9824C33.0531 20.9621 33.0329 20.7596 33.0531 20.7596C33.0531 20.7596 33.1544 20.7596 33.1747 20.7596C33.1949 20.7596 33.1747 20.6989 33.1747 20.6989C33.1544 20.6989 33.0531 20.6989 33.0531 20.6989C33.0531 20.6786 33.0531 20.5368 33.0734 20.4761C33.0734 20.4356 33.0734 20.4153 33.0531 20.4761C33.0531 20.5166 32.9519 20.6786 32.8911 20.7191M33.1342 20.152C33.1949 20.152 33.2759 20.1723 33.3772 20.1723C33.4987 20.1723 33.5797 19.99 33.5392 19.8482C33.4987 19.7064 33.3367 19.7267 33.2354 19.7065C33.1342 19.6862 33.0936 19.6254 33.1949 19.5647C33.3164 19.4837 33.4582 19.6052 33.4785 19.6457C33.4987 19.6862 33.519 19.6862 33.519 19.6457C33.519 19.5242 33.519 19.6052 33.519 19.4837C33.519 19.4432 33.4785 19.4432 33.4785 19.4837C33.4785 19.5242 33.4379 19.5039 33.3974 19.5039C33.3569 19.5039 33.2557 19.5039 33.1747 19.5444C33.1139 19.5849 32.9924 19.6659 33.0734 19.7875C33.1139 19.8482 33.3569 19.909 33.4177 19.9495C33.4785 19.99 33.4987 20.0913 33.4177 20.1318C33.3367 20.1925 33.1544 20.1318 33.1139 20.1115C33.0734 20.071 33.0531 20.0305 33.0531 19.99C33.0531 19.9292 32.9924 19.9495 32.9924 19.99C32.9924 20.0305 32.9924 20.1925 32.9924 20.233C32.9924 20.2735 33.0329 20.2533 33.0531 20.233C33.0531 20.2128 33.0734 20.1925 33.0936 20.1925M33.3974 20.2938C33.3772 20.3343 33.3367 20.3748 33.2759 20.3951C33.3164 20.4356 33.3569 20.4761 33.3974 20.4963C33.4379 20.4558 33.4785 20.4153 33.519 20.3748C33.4785 20.3748 33.4177 20.3343 33.3974 20.2938ZM32.8101 20.233C32.8506 20.1925 32.8709 20.152 32.8911 20.1318C32.9316 20.1115 32.8911 20.071 32.8709 20.1115C32.8506 20.1318 32.7898 20.0913 32.7898 20.071C32.7898 20.0508 32.7493 19.7672 32.7493 19.7672C32.7493 19.7672 32.9316 19.747 32.9519 19.747V19.6862C32.9316 19.6862 32.7898 19.6862 32.7898 19.6862C32.7898 19.6659 32.7696 19.5647 32.7898 19.4837C32.8101 19.4432 32.7898 19.4027 32.7898 19.4432C32.7898 19.4837 32.6683 19.6457 32.5873 19.6862C32.5266 19.7064 32.5266 19.7267 32.5873 19.7267C32.6076 19.7267 32.6481 19.7672 32.6481 19.7672C32.6481 19.909 32.6481 20.0913 32.6683 20.152C32.6886 20.1925 32.7696 20.2533 32.8101 20.2128M32.324 20.5368C32.2835 20.5773 32.243 20.6178 32.1823 20.6583C32.2025 20.6989 32.2633 20.7394 32.2633 20.8001C32.2633 20.8609 32.2633 21.1444 32.2633 21.2052C32.3038 21.2052 32.3038 21.2052 32.3848 21.2052C32.3848 21.1647 32.3848 20.8001 32.3848 20.7394C32.4253 20.7191 32.4253 20.6989 32.4455 20.6786C32.4658 20.6989 32.5266 20.7191 32.5266 20.7596C32.5266 20.8001 32.5266 20.9621 32.5266 21.0229C32.5266 21.1039 32.5266 21.1647 32.5671 21.2254C32.6076 21.1849 32.7088 21.1039 32.7493 21.0837C32.7696 21.0634 32.7493 21.0432 32.7291 21.0634C32.6886 21.0634 32.6886 21.0634 32.6886 21.0634C32.6886 21.0229 32.6886 20.8406 32.6886 20.7191C32.6886 20.5976 32.6278 20.5571 32.5873 20.5571C32.5468 20.5976 32.4861 20.6381 32.4253 20.6786C32.3848 20.6583 32.3645 20.5976 32.3443 20.5368M31.8582 20.6178C31.8785 20.6786 31.9392 20.7596 31.9797 20.7799C31.919 20.8406 31.7974 20.9216 31.7772 20.9419C31.7164 20.8609 31.6759 20.7394 31.8785 20.6178M31.6354 20.8609C31.5949 21.0837 31.8177 21.2254 31.919 21.2659C31.9392 21.2052 32 21.1242 32.0405 21.0634C32.081 21.0229 32.0405 21.0027 32 21.0432C31.9595 21.1039 31.8177 21.0432 31.7772 20.9824C31.8379 20.9216 32.0202 20.7799 32.1012 20.7191C32.0405 20.6786 31.9797 20.5571 31.9595 20.4761C31.8987 20.5166 31.6557 20.6178 31.6354 20.8609ZM31.5747 19.7672C31.4936 19.8887 31.4531 20.0913 31.5747 20.2128C31.6354 20.2735 31.6962 20.314 31.8379 20.2938C31.8582 20.233 31.8785 20.2128 31.919 20.152C31.8177 20.152 31.7569 20.152 31.6759 20.0913C31.5342 19.99 31.5747 19.8077 31.6152 19.747C31.6962 19.6254 31.7974 19.7875 31.8177 19.8077C31.838 19.7875 31.8785 19.7267 31.919 19.7065C31.8785 19.6457 31.838 19.6052 31.8177 19.5647C31.7367 19.6052 31.5949 19.6862 31.5342 19.7672M32.2228 19.4432C32.2228 19.4432 32.1823 19.4027 32.1823 19.3824C32.1823 19.3824 32.1823 19.1799 32.1823 19.1394C32.1823 19.0989 32.1417 19.1191 32.1417 19.1394C32.1417 19.1799 32.1417 19.2406 32.1215 19.2811C32.0405 19.4229 31.8785 19.4634 31.7569 19.3014C31.7164 19.2406 31.7164 19.1596 31.6962 19.0989C31.6962 19.0178 31.7569 18.9166 31.7569 18.9166C31.8987 18.7343 32.1012 18.8761 32.1215 18.9368C32.1215 18.9976 32.1417 19.0583 32.1417 19.0786C32.1417 19.0989 32.1823 19.0786 32.1823 19.0786C32.1823 19.0583 32.1823 18.7546 32.1823 18.7343C32.1823 18.7343 32.1417 18.714 32.1417 18.7343C32.1417 18.7748 32.1215 18.7748 32.081 18.7748C32 18.7546 31.8379 18.714 31.7569 18.7748C31.6759 18.8153 31.5544 18.9368 31.5544 19.0786C31.5544 19.3216 31.6557 19.3419 31.7569 19.4027C31.8582 19.4634 31.9797 19.4027 32.1215 19.4027C32.162 19.4027 32.1823 19.4027 32.2025 19.4634C32.243 19.5242 32.2835 19.4634 32.243 19.4432M32.3038 20.1115V20.152C32.3038 20.152 32.2633 20.152 32.243 20.1723C32.2025 20.152 32.0607 20.0913 32.162 20.0102C32.2228 20.0508 32.243 20.0102 32.3038 19.99C32.3038 20.0508 32.3038 20.0913 32.3038 20.1115ZM32.3038 19.9495C32.2228 20.0102 32.1823 20.0102 32.1215 19.9495C32.081 19.909 32.1012 19.8482 32.1215 19.828C32.1417 19.7875 32.2025 19.747 32.2228 19.747C32.2228 19.747 32.324 19.828 32.3038 19.8685C32.3038 19.8887 32.3038 19.9292 32.3038 19.9697M32.2835 19.6254C32.2025 19.6254 32.081 19.7267 32.0607 19.8077C32.0607 19.8482 32.0607 19.9495 32.081 19.9697C32.081 19.9697 32.081 19.9697 32.1012 19.99C32.0405 20.0305 32 20.071 32 20.152C32 20.2128 32.0607 20.2938 32.1215 20.314C32.162 20.2533 32.2228 20.2128 32.2835 20.2128C32.2835 20.2735 32.2835 20.314 32.3443 20.3343C32.3645 20.314 32.4658 20.2128 32.486 20.1925C32.5063 20.1723 32.4861 20.152 32.4658 20.1723C32.4658 20.1723 32.405 20.1723 32.405 20.152C32.405 20.1115 32.405 19.8077 32.405 19.7875C32.3645 19.7267 32.3038 19.6254 32.2633 19.6254M32.8709 18.8356C32.9114 18.7951 32.8709 18.7748 32.8506 18.8153C32.8304 18.7951 32.7696 18.7343 32.7493 18.6938C32.7291 18.714 32.6481 18.7546 32.6076 18.7748C32.5671 18.7343 32.5468 18.7343 32.486 18.6938C32.4455 18.714 32.3848 18.7748 32.3443 18.8153C32.405 18.8356 32.4658 18.8356 32.4658 18.8963C32.4658 18.9368 32.4658 19.2406 32.4658 19.3014C32.5063 19.3014 32.5468 19.3014 32.6076 19.3014C32.6076 19.2609 32.6076 18.8761 32.6076 18.8356C32.6076 18.8356 32.6481 18.8153 32.6683 18.7951C32.6886 18.7951 32.7291 18.8761 32.7696 18.8963C32.7898 18.8761 32.8709 18.8356 32.8911 18.7951M33.0936 18.9773C33.0531 18.8356 33.0734 18.7748 33.1544 18.6938C33.1747 18.7546 33.2354 18.7748 33.2557 18.7951C33.1949 18.8558 33.1139 18.9368 33.0936 18.9571M33.3974 19.1596C33.2152 19.2001 33.1342 19.0583 33.1139 19.0178C33.1949 18.9368 33.3164 18.8153 33.3974 18.7546C33.3367 18.714 33.3164 18.633 33.2354 18.6128C33.1544 18.6128 32.9721 18.714 32.9316 18.9368C32.8911 19.1596 33.1139 19.2811 33.2759 19.2811C33.3367 19.2811 33.3974 19.2001 33.438 19.2001C33.519 19.1596 33.4785 19.1191 33.3974 19.1394M33.9038 18.8963C33.9038 18.8963 33.8633 18.9368 33.8228 18.9571C33.8228 18.9571 33.7823 18.9571 33.762 18.9571C33.7012 18.9571 33.6607 18.8963 33.6405 18.8558C33.6202 18.8153 33.681 18.7748 33.7215 18.7951C33.762 18.7951 33.843 18.8558 33.9038 18.8963ZM33.7823 19.0583C33.8228 19.0583 33.8633 19.0989 33.9038 19.1191C33.9645 19.1596 33.9443 19.2204 33.8633 19.2609C33.7823 19.3014 33.6607 19.2001 33.6405 19.1596C33.6607 19.1394 33.7215 19.0989 33.7823 19.0583ZM34.0861 18.8153C34.0253 18.7748 33.9848 18.6938 33.8633 18.6938C33.7417 18.6938 33.6 18.7951 33.5595 18.8761C33.4987 18.9773 33.5595 19.0583 33.6607 19.1191C33.6202 19.1596 33.5392 19.2204 33.4785 19.2811C33.4987 19.3014 33.6405 19.3824 33.7215 19.3824C33.843 19.3824 33.9443 19.3216 34.0253 19.2609C34.1468 19.1596 34.1063 19.0583 33.9848 18.9773C33.9848 18.9773 33.9645 18.9773 33.9443 18.9773C34.0253 18.9166 34.086 18.8558 34.1063 18.8356M34.2481 19.5242L34.1671 19.4432L34.0861 19.5039V19.6052L34.1266 19.6457H34.1671L34.2278 19.6052V19.5242H34.2481ZM34.2076 18.9976C34.1873 18.9976 34.1266 19.0786 34.3088 19.0786C34.3291 19.0786 34.3493 19.0178 34.2076 18.9976ZM34.2076 19.0989C34.1873 19.0989 34.1266 19.1596 34.3088 19.1799C34.3291 19.1799 34.3696 19.1191 34.2076 19.0989ZM34.3291 20.2735L34.3898 20.2128C34.3088 20.2128 34.3088 20.2128 34.2886 20.1723V19.828L34.2278 19.7267H34.1873L34.0455 19.8685C34.005 19.909 34.0455 19.9292 34.0861 19.8685L34.1671 19.909V20.233C34.1671 20.2735 34.2076 20.2938 34.2481 20.3343L34.3291 20.2735ZM33.8835 20.8811C33.9443 20.9216 33.9645 20.9216 34.0455 20.9014C34.0455 20.9419 34.0455 20.9621 34.0455 20.9824C34.0455 21.0027 34.0455 21.0027 34.0455 21.0229C34.005 21.0229 33.9645 21.0229 33.924 21.0634C33.8835 21.0432 33.7823 20.9621 33.8835 20.8609M34.0253 20.8609C33.9645 20.8609 33.924 20.8609 33.843 20.7799C33.843 20.7799 33.8228 20.6989 33.843 20.6786C33.8633 20.6381 33.8633 20.6178 33.9038 20.6178C33.9038 20.6178 34.0455 20.6989 34.0455 20.7191C34.0455 20.7394 34.0455 20.8001 34.0455 20.8406M33.8228 20.8406C33.762 20.9014 33.7215 20.9621 33.7417 21.0229C33.7417 21.1039 33.762 21.1647 33.843 21.2052C33.9038 21.1647 33.9848 21.1039 34.0658 21.0837C34.1063 21.1242 34.1671 21.1647 34.2076 21.1849C34.2278 21.1444 34.3088 21.0837 34.3291 21.0634C34.3493 21.0432 34.3291 21.0027 34.3088 21.0432C34.3088 21.0634 34.2278 21.0432 34.2278 21.0432C34.2278 21.0027 34.2076 20.6989 34.2278 20.6786C34.1873 20.6178 34.1063 20.5166 34.0455 20.5166C33.9645 20.5166 33.843 20.6381 33.8228 20.6786C33.8228 20.6989 33.8228 20.8406 33.843 20.8609M33.6202 20.071C33.6607 20.2128 33.7823 20.2533 33.8633 20.2533C33.8835 20.2128 33.9443 20.1318 33.9645 20.0913C34.005 20.0305 33.9645 20.0102 33.9443 20.071C33.924 20.1115 33.8025 20.071 33.762 20.0305C33.7012 19.99 33.681 19.8482 33.7215 19.8077C33.762 19.7672 33.8228 19.7875 33.9038 19.7875C33.9645 19.7875 33.9645 19.7267 33.9848 19.7065C33.9645 19.7065 33.924 19.6659 33.8633 19.6457C33.8025 19.6862 33.7215 19.747 33.7012 19.7672C33.6607 19.8077 33.5595 19.9292 33.6202 20.071ZM33.5797 21.0837L33.6405 21.0229C33.5595 21.0229 33.6 21.0229 33.5595 20.9824V20.6989L33.4582 20.5571H33.4177L33.2759 20.6989C33.2354 20.7394 33.2759 20.7394 33.3164 20.6989L33.4177 20.7394V21.0432C33.4177 21.0837 33.4582 21.0837 33.4987 21.1444L33.5595 21.0837H33.5797ZM34.7949 22.7444C34.7949 22.7444 34.8557 22.6837 34.8557 22.6432C34.8557 22.5824 34.7949 22.5419 34.7949 22.5419C34.8354 22.5419 34.9569 22.6229 34.9974 22.6432L34.7949 22.7444ZM35.1595 22.6432C35.038 22.6229 34.9367 22.5216 34.8152 22.4811C34.6531 22.4204 34.4709 22.5419 34.4709 22.5621C34.4709 22.6027 34.5114 22.6229 34.6531 22.5621C34.5519 22.6837 34.6531 22.7849 34.6531 22.7849C34.6126 22.7849 34.5519 22.7647 34.5114 22.7444C34.5114 22.7849 34.5721 22.8052 34.5924 22.8254C34.8152 22.9064 34.9569 22.7039 35.1595 22.6634M36.6582 20.6178C36.6177 20.6583 36.5569 20.6989 36.5164 20.7596C36.5569 20.7596 36.5974 20.7596 36.6177 20.8204C36.6379 20.8609 36.6177 21.0432 36.6177 21.1242C36.6177 21.1849 36.6582 21.2052 36.719 21.2659C36.7797 21.2659 36.9215 21.1849 36.9823 21.1444C36.9823 21.2052 37.043 21.2659 37.0835 21.2862C37.1038 21.2457 37.1443 21.2457 37.1848 21.2052C37.1443 21.1849 37.1443 21.1647 37.1443 21.1242C37.1443 21.0634 37.1443 20.8811 37.1443 20.8001C37.1038 20.7596 37.0633 20.6989 37.0025 20.6583C36.962 20.6989 36.9215 20.7394 36.8607 20.8001C36.9012 20.8001 37.0025 20.8001 37.0025 20.8406C37.0025 20.8811 37.0025 21.0027 37.0025 21.0837C37.0025 21.1647 36.7595 21.1242 36.7595 21.0837C36.7595 21.0229 36.7595 20.8609 36.7595 20.7799C36.719 20.7394 36.6987 20.6989 36.6582 20.6583M36.7595 19.9697C36.7595 19.8887 36.8405 19.8482 36.8607 19.828C36.9012 19.8685 36.9417 19.909 37.0025 19.909C37.0633 19.909 37.124 19.8887 37.124 19.8685C37.0835 19.828 36.9823 19.7267 36.962 19.7065C36.9012 19.7267 36.6785 19.8482 36.6582 19.99C36.6379 20.1925 36.6987 20.233 36.7797 20.3546C36.8202 20.4153 36.9215 20.4153 36.9417 20.4153C36.9823 20.3951 37.124 20.2533 37.1443 20.233C37.1443 20.233 37.1443 20.1925 37.124 20.233C37.124 20.233 37.124 20.2533 37.0835 20.2533C37.0633 20.2533 36.962 20.2735 36.9012 20.2533C36.8202 20.2128 36.7392 20.1318 36.7595 20.0102M36.1316 19.9495C36.1316 20.0913 36.0709 20.233 35.9898 20.2938C36.1316 20.2533 36.1316 20.1723 36.2126 20.0913C36.2531 20.152 36.3342 20.233 36.3747 20.2533C36.4152 20.233 36.5164 20.1115 36.5367 20.071C36.4557 20.0508 36.3139 19.9697 36.2734 19.8887C36.2531 19.828 36.2531 19.7875 36.2734 19.747C36.2936 19.7875 36.4759 19.8685 36.5772 19.7267C36.4759 19.6862 36.3949 19.6254 36.3747 19.5849C36.3544 19.6052 36.2734 19.6862 36.2126 19.7267C36.2126 19.6862 36.1316 19.6254 36.0709 19.6052C36.0709 19.6254 35.9088 19.7267 35.8481 19.7672C35.8481 19.7672 35.8481 19.828 35.8481 19.8077C35.8683 19.8077 35.9088 19.7672 35.9696 19.747C36.0304 19.7672 36.0911 19.828 36.1114 19.9495M36.1114 20.5976C36.0506 20.6178 36.1924 20.6786 36.1721 20.6786C36.1721 20.8204 36.1316 21.0634 36.1721 21.1444C36.2126 21.1849 36.2734 21.2254 36.3139 21.2052C36.3544 21.2052 36.4152 21.1039 36.4354 21.0837C36.4759 21.0634 36.4354 21.0229 36.4152 21.0634C36.3949 21.0837 36.3139 21.0634 36.2936 21.0634C36.2936 21.0432 36.2936 20.7191 36.2936 20.7191C36.2936 20.7191 36.3747 20.7191 36.4152 20.7191C36.4152 20.7191 36.4354 20.6583 36.4152 20.6583C36.3747 20.6583 36.3139 20.6583 36.3139 20.6583C36.3139 20.6381 36.3139 20.5368 36.3342 20.4963C36.3342 20.4558 36.3342 20.4356 36.2936 20.4963C36.2936 20.5368 36.1924 20.6381 36.0911 20.6786M35.5848 20.6989C35.6253 20.6583 35.6253 20.6381 35.6658 20.6381C35.6861 20.6381 35.7671 20.6989 35.7671 20.7394C35.7671 20.7596 35.7671 20.8204 35.7671 20.8811C35.7063 20.8811 35.6658 20.8811 35.5848 20.8406C35.5848 20.8406 35.5848 20.7394 35.5848 20.6989ZM35.6253 20.9216C35.6658 20.9419 35.6861 20.9216 35.7671 20.9216C35.7671 20.9621 35.7671 21.0027 35.7671 21.0229C35.7266 21.0432 35.6861 21.0634 35.6455 21.0837C35.605 21.0634 35.5645 21.0229 35.6253 20.9014M35.5645 20.8609C35.524 20.9014 35.4633 21.0027 35.4633 21.0634C35.4633 21.1444 35.5038 21.2052 35.5443 21.2457C35.6253 21.2052 35.6658 21.1242 35.7873 21.0837C35.7873 21.1444 35.8481 21.1444 35.8886 21.1849C35.9088 21.1444 36.0101 21.0229 36.0506 21.0027C36.0709 20.9824 36.0506 20.9621 36.0304 20.9824C35.9898 21.0027 35.9696 20.9824 35.9291 20.9419C35.9291 20.9014 35.9291 20.6583 35.9291 20.6381C35.8886 20.5773 35.8278 20.5166 35.7671 20.5166C35.6861 20.5166 35.5848 20.6786 35.5443 20.7191C35.524 20.7394 35.5443 20.8609 35.5443 20.8609M35.0785 20.3748C35.0785 20.4356 35.0987 21.0432 35.0987 21.1242C35.0987 21.1647 35.1595 21.2254 35.2202 21.2659C35.2405 21.2254 35.3012 21.1444 35.362 21.1039C35.3823 21.0837 35.362 21.0634 35.362 21.0634C35.3215 21.0837 35.2607 21.0634 35.2607 21.0229C35.2607 20.9621 35.2607 20.4558 35.2607 20.3748C35.2202 20.3748 35.119 20.3748 35.0987 20.3748M35.0177 19.9495C35.0177 20.1925 35.119 20.2128 35.2202 20.2735C35.3215 20.3343 35.5038 20.314 35.6253 20.2735C35.6658 20.2735 35.7063 20.2735 35.7063 20.2938C35.7063 20.314 35.7468 20.314 35.7468 20.2938C35.7468 20.2735 35.7468 20.071 35.7468 20.0508C35.7468 20.0305 35.7063 20.0305 35.7063 20.0508C35.7063 20.0913 35.7063 20.0913 35.6658 20.152C35.5645 20.2938 35.3417 20.2735 35.2202 20.1115C35.1797 20.0508 35.1392 19.9697 35.1797 19.9697C35.2202 19.9697 35.3823 19.9697 35.4633 19.99C35.524 19.99 35.6658 19.99 35.6658 20.0102C35.6658 20.0102 35.7063 20.0305 35.7063 20.0102C35.7063 19.99 35.7063 19.8887 35.7063 19.8482C35.7063 19.8077 35.6861 19.8482 35.6658 19.8482C35.6658 19.8482 35.5038 19.8887 35.443 19.8887C35.3823 19.8887 35.2 19.909 35.1595 19.8887C35.119 19.8887 35.119 19.7672 35.1595 19.7267C35.281 19.5647 35.524 19.5647 35.6253 19.7267C35.6658 19.7672 35.6658 19.7875 35.6658 19.828C35.6658 19.8685 35.7063 19.8482 35.7063 19.828C35.7063 19.8077 35.7063 19.5647 35.7063 19.5444C35.7063 19.5242 35.6658 19.5242 35.6658 19.5444C35.6658 19.5647 35.6253 19.5647 35.5848 19.5444C35.5038 19.5242 35.281 19.5444 35.1797 19.6052C35.0987 19.6659 34.9569 19.7672 34.9569 19.9292M35.9898 18.5318C35.9493 18.5318 35.7873 18.5318 35.7468 18.5318C35.6861 18.5318 35.6861 18.5723 35.7468 18.5723C35.7873 18.5723 35.8076 18.5723 35.8278 18.6533C35.8481 18.714 35.7468 18.9976 35.7063 19.0583C35.6658 19.0178 35.5645 18.7546 35.5645 18.714C35.5645 18.6735 35.6253 18.6735 35.6455 18.6533C35.6861 18.6533 35.6861 18.6128 35.6455 18.6128C35.5645 18.6128 35.2405 18.5723 35.1797 18.5723C35.1392 18.5723 35.119 18.6128 35.1797 18.6128C35.2405 18.6128 35.281 18.6128 35.3417 18.6735C35.4025 18.7748 35.605 19.2001 35.6658 19.3824C35.6861 19.3419 35.8886 18.7546 35.9088 18.6938C35.9088 18.633 35.9696 18.5723 36.0304 18.552C36.0911 18.552 36.0911 18.5115 36.0304 18.5115M36.2734 18.633L36.3342 18.5723V18.4913L36.2531 18.4102L36.1721 18.471V18.5723L36.2329 18.6128H36.2734V18.633ZM36.3544 19.4027L36.4557 19.2609C36.3747 19.2609 36.3544 19.2406 36.2936 19.1799V18.8356L36.1924 18.7343H36.1519L35.9898 18.8963C35.9898 18.9166 36.0101 18.9166 36.0506 18.8963L36.1721 18.9773V19.3014C36.1721 19.3419 36.2126 19.3824 36.2734 19.4229H36.3747L36.3544 19.4027ZM37.0633 18.8153C37.0228 18.8153 36.8202 18.8153 36.8 18.8153C36.8 18.7748 36.7797 18.714 36.8 18.633C36.8 18.5925 36.8 18.5723 36.7595 18.633C36.7595 18.6735 36.6379 18.8153 36.5164 18.8761C36.4557 18.8963 36.5974 18.9571 36.5772 18.9571C36.5772 19.0989 36.5974 19.3216 36.6379 19.4027C36.6379 19.4634 36.719 19.5444 36.7595 19.5039C36.7797 19.5039 36.8405 19.3824 36.8607 19.3621C36.9012 19.3419 36.8607 19.3014 36.8405 19.3216C36.8202 19.3419 36.7797 19.3216 36.7797 19.2811C36.7797 19.2609 36.7392 18.9368 36.7595 18.9368C36.7595 18.9368 37.0228 18.8963 37.043 18.8963C37.0633 18.8963 37.043 18.8356 37.043 18.8356M37.4683 19.4229C37.4278 19.4229 37.4076 19.4229 37.3468 19.4634C37.3063 19.4229 37.205 19.3216 37.2861 19.1799C37.2861 19.1799 37.2861 19.1799 37.2658 19.1799C37.3266 19.2204 37.4076 19.2406 37.4683 19.2609C37.4683 19.3216 37.4683 19.3621 37.4683 19.3824C37.4683 19.4027 37.4683 19.4229 37.4683 19.4432M37.4683 19.2204C37.4076 19.2001 37.2658 19.1394 37.2253 19.0989C37.2253 19.0989 37.2253 19.0989 37.2253 19.0583C37.2658 19.0178 37.2861 18.9773 37.3266 18.9773C37.3468 18.9773 37.4886 19.0583 37.4886 19.0989C37.4886 19.1191 37.4886 19.1799 37.4886 19.2406M37.5493 19.5849L37.6911 19.4432C37.6911 19.4432 37.6304 19.4027 37.5898 19.3419C37.5898 19.3014 37.5898 18.9976 37.5898 18.9976C37.4886 18.8963 37.4076 18.8963 37.3671 18.8963C37.2861 18.8963 37.205 19.0178 37.1645 19.0583C37.1645 19.0786 37.1645 19.1191 37.1645 19.1394C37.1645 19.1394 37.205 19.1596 37.2253 19.1799C37.1848 19.2204 37.124 19.3216 37.124 19.4027C37.124 19.4837 37.1848 19.5849 37.2253 19.6254C37.2658 19.5849 37.3468 19.5242 37.4481 19.5039C37.4481 19.5647 37.4886 19.5849 37.5291 19.6052M37.5493 20.3748C37.5088 20.3748 37.3873 20.2533 37.3468 20.1723C37.3063 20.071 37.3063 19.9495 37.4278 19.8887C37.5088 19.9292 37.6101 20.0102 37.6304 20.0913C37.6304 20.1925 37.6304 20.314 37.5493 20.3748ZM37.6709 20.3343C37.7114 20.2735 37.7721 20.152 37.7519 20.071C37.7519 19.9697 37.6911 19.8077 37.5291 19.7672C37.3266 19.828 37.2253 19.99 37.205 20.1723C37.205 20.2735 37.2861 20.4963 37.4683 20.4963C37.5291 20.4356 37.5898 20.3748 37.6506 20.3343M37.8531 20.8609C37.8329 20.8406 37.7721 20.7799 37.7114 20.7394C37.6709 20.7596 37.6101 20.8204 37.5696 20.8406C37.5291 20.8001 37.4886 20.7596 37.4278 20.6989C37.3873 20.7191 37.2861 20.8204 37.2253 20.8406C37.2861 20.8406 37.3873 20.8609 37.3873 20.9216C37.3873 20.9621 37.3873 21.2862 37.3873 21.347C37.4278 21.347 37.4683 21.347 37.5291 21.347C37.5291 21.3065 37.5291 20.9419 37.5291 20.9014C37.5291 20.9014 37.5696 20.8811 37.5898 20.8609C37.6101 20.8609 37.6911 20.9621 37.7316 20.9824C37.7519 20.9621 37.8329 20.9014 37.8531 20.8609C37.8936 20.8204 37.8531 20.8001 37.8126 20.8406L37.8531 20.8609ZM37.8531 20.1925C37.8734 20.1925 37.9139 20.1925 37.9747 20.1925C37.9949 20.1925 37.9747 20.152 37.9747 20.1318C37.9544 20.1318 37.8936 20.1318 37.8734 20.1318C37.8329 20.1318 37.8329 20.1723 37.8734 20.1925M37.9747 20.0508C37.9544 20.0508 37.8936 20.0508 37.8734 20.0508C37.8531 20.0508 37.8329 20.0913 37.8734 20.1115C37.8936 20.1115 37.9544 20.1115 37.9949 20.1115C38.0354 20.1115 38.0152 20.071 37.9949 20.0508M38.7645 27.7065C38.7038 28.0102 38.6025 28.2938 38.4202 28.5571C38.2987 28.7394 38.2379 28.3748 38.3595 28.0305C38.5215 27.9697 38.6633 27.8482 38.7848 27.7065M38.5823 27.7672C38.1772 28.1723 37.5696 28.0305 37.0835 28.233C36.6582 28.3951 36.3342 28.8001 35.8886 28.9014C35.7468 28.9419 35.7266 29.0027 35.8278 29.0027C35.8683 29.0027 36.1519 29.2862 36.5974 29.0634C36.7392 28.9824 37.205 28.7394 37.2861 28.7191C37.043 28.9621 36.9215 29.1647 36.6987 29.2862C36.5569 29.3672 36.0101 29.5697 35.443 29.4482C35.2 29.4077 35.0177 29.6305 35.0785 29.6305C35.2 29.59 35.362 29.6305 35.443 29.7318C35.605 29.8533 35.8278 30.0153 36.0304 29.7723C36.0911 29.6913 36.4152 29.5292 36.719 29.833C36.3949 29.833 36.4354 30.3799 35.8278 30.3191C35.605 30.3191 35.119 29.8128 34.9772 29.9748C34.7342 30.2583 35.5038 30.5216 35.1797 30.8659C34.8759 31.19 34.5114 30.6229 34.5114 30.6229C34.6936 30.7039 35.0582 30.7647 34.8962 30.4406C34.8354 30.3191 34.7139 30.1976 34.7139 29.9748C34.6936 29.8533 33.9848 30.8862 33.519 30.4204C33.3367 30.2381 32.9721 29.8533 32.6278 29.6913C33.519 29.6102 33.6405 29.9748 33.7012 30.0356C33.9848 30.4204 34.2481 30.0356 34.3088 29.9545C34.4101 29.8533 34.5316 29.7115 34.4911 29.6913C34.1468 29.5292 33.762 29.4887 33.4582 29.6305C34.086 28.7596 34.5721 29.5697 34.5721 29.5697C34.6329 29.6102 34.5721 29.0634 33.924 29.0229C33.5392 29.0229 33.1949 29.347 32.9316 29.347C32.7088 29.347 32.0607 28.9014 31.8987 28.4963C32.2835 28.7799 32.7696 28.9419 33.0734 28.7596C33.6405 28.4153 34.3696 28.9419 34.4101 28.8811C34.2481 28.7596 33.8835 28.2735 32.8911 28.5368C32.5063 28.7596 32.3443 28.3748 32.1215 28.3748C32.5266 28.0305 32.7898 28.1925 32.9316 28.2128C32.9721 28.2128 32.7696 28.0508 32.6278 28.0305C31.5342 27.909 30.8455 27.6254 30.8455 27.6254C30.8455 27.6254 30.9266 27.4027 31.4126 27.5647C31.4126 27.5647 30.9873 27.3014 30.9873 26.9773C30.9873 26.7748 31.1088 26.552 30.9468 26.39C31.5747 26.3697 31.1291 27.2406 31.5747 27.4634C31.5747 27.4634 31.4531 27.2609 31.6354 27.0786C31.7367 27.3419 31.9595 27.4634 32.1012 27.5039C32.1417 27.5039 32.1823 27.4027 32.1823 27.4027C32.0202 27.1191 32 26.7951 32.0405 26.4305C32.081 26.4305 32.1417 26.552 32.1823 26.6533C32.2835 26.8558 32.2633 27.1394 32.4455 27.3621C32.5468 27.4837 32.6076 27.6254 32.7088 27.6862C32.7493 27.5849 32.7088 27.4432 32.7088 27.4027C32.6886 27.2609 32.5873 26.9976 32.8506 26.7546C32.9721 27.0989 33.1342 26.9976 33.1544 27.1596C33.1949 27.3824 33.1544 27.3621 33.1544 27.5242C33.1544 27.7672 33.3974 27.8482 33.5797 27.99C34.0253 28.233 34.3291 28.3546 34.5114 28.6786C34.6126 28.152 33.1949 28.0508 33.3772 27.0381C33.3772 26.633 33.4177 26.5925 33.1342 26.3495C33.7012 26.3495 34.005 27.3014 34.0455 27.4634C34.1063 27.7672 34.2886 27.7875 34.5519 28.1925C34.5924 28.1925 34.0861 27.0989 34.6936 26.1672C34.6936 26.1672 34.8962 26.6533 34.7949 26.9773C34.7342 27.1799 34.7949 27.3824 34.7949 27.5039C34.7949 27.6254 34.7747 27.0583 35.2 26.7546C35.2202 26.9773 35.443 27.3014 35.2405 27.6659C34.9974 28.1115 34.9772 27.9495 34.9772 28.4761C34.9974 28.4761 35.0582 28.1115 35.2202 27.909C35.5645 27.4837 35.3215 27.2406 35.6658 26.8761C35.6861 27.0583 35.7468 26.9976 35.7671 27.1596C35.8076 27.5242 35.4228 27.9495 35.5038 27.9292C35.605 27.9292 35.7671 27.828 35.8076 27.5444C35.8076 27.5444 35.9493 27.8077 35.8076 27.8887C35.5645 28.0508 35.524 28.2128 35.5645 28.3951C35.7468 28.1723 36.0101 27.909 35.9696 27.5849C35.9898 27.3824 36.2126 27.3014 36.2531 26.8558C36.2531 26.7748 36.3342 26.6938 36.4152 26.6533C36.3747 26.9166 36.5772 27.1799 36.3544 27.4837C36.4152 27.5039 36.5974 27.2406 36.881 27.3419C36.3139 27.4432 36.4759 28.0508 36.0506 28.3343C35.9291 28.4153 35.9493 28.5166 35.9088 28.5166C36.2936 28.4963 36.5974 28.0305 36.6379 28.0102C37.0228 27.747 37.1038 27.7064 37.2658 27.2811C37.3266 27.1191 37.2658 27.0583 37.4886 26.8356C37.5898 27.0583 37.4481 27.4837 37.4076 27.5849C37.3468 27.7875 37.1038 27.9697 37.1443 27.9697C38.1772 27.5039 38.1569 27.2001 38.4202 26.8761C38.5012 26.7546 38.8658 26.5318 39.0076 26.5115C38.9671 26.5723 38.8253 26.6938 38.8253 26.8153C38.8253 27.0381 38.7443 27.1799 38.6228 27.3621C38.6835 27.4432 38.805 27.2204 38.9468 27.3216C38.7848 27.3824 38.7038 27.5647 38.5823 27.6659M37.6304 27.4432C37.6506 27.3419 37.6506 27.2609 37.6709 27.1596C37.6709 27.1191 37.6709 27.1191 37.6709 27.0989C37.6709 27.0989 37.9544 27.3419 37.9747 27.3621C37.8936 27.4634 37.8329 27.4837 37.7721 27.5444C37.7316 27.5039 37.6101 27.4634 37.6101 27.4432M37.7316 27.6052C37.5898 27.7267 37.5088 27.7672 37.5291 27.7065C37.5696 27.6457 37.5898 27.5849 37.6101 27.5444L37.7316 27.6052ZM39.0481 26.4508C38.9266 26.4913 38.6025 26.6128 38.5215 26.7343C38.562 26.0254 38.3392 25.3368 38.2582 25.1748C38.1164 24.8508 38.319 25.9242 38.3392 26.1875C38.3392 26.1875 37.1645 24.6887 37.8734 25.8432C38.0557 26.147 38.3392 26.3495 38.3392 26.3495C38.3392 26.552 38.3392 26.714 38.2987 26.8356C38.2177 26.8963 36.6987 24.8102 37.5493 26.2482C37.6506 26.4305 38.2582 26.9571 38.2582 26.9773C38.2177 27.0583 38.1569 27.1799 38.0557 27.2609C38.0557 27.2609 37.7114 26.9976 37.7114 26.9773C37.6911 26.8153 37.6911 26.6735 37.4886 26.7748C37.4886 26.7748 36.7392 25.9039 37.0835 26.5115C37.2253 26.7748 37.3266 26.8153 37.3671 26.8558C37.3671 26.8558 37.2455 27.0178 37.205 27.1799C37.205 27.2406 36.5569 26.471 36.8 26.9571C36.881 27.1191 37.1645 27.2811 37.1645 27.3014C37.1443 27.4027 37.1038 27.5039 37.0633 27.5647C37.0228 27.6457 36.4759 28.0913 36.4759 28.0913C36.4759 28.0913 36.5772 27.747 36.8202 27.5647C36.962 27.4634 36.962 27.4837 37.043 27.4229C37.043 27.3621 36.9823 27.2811 36.9215 27.2609C36.8405 27.2406 36.5772 27.2609 36.5772 27.2609C36.5974 27.1191 36.4962 26.8356 36.4962 26.5318C36.3949 26.5318 36.2329 26.6938 36.1721 26.7748C36.1519 27.3014 36.0304 27.1394 35.9291 27.5039C35.8076 27.3419 35.9291 27.1191 35.8278 26.9773C35.6658 26.7748 35.6455 26.633 35.6253 26.39C35.6658 26.39 35.8278 26.1875 35.6658 25.8229C35.6455 25.2558 35.9088 25.033 35.443 24.628C35.4835 24.628 35.5038 24.3242 35.5038 24.3242C35.8481 24.5064 35.7671 24.1216 35.9088 24.0406C36.1114 23.9191 36.0709 23.7976 35.9898 23.6356C36.5772 23.7976 35.9696 24.2229 36.2329 24.2229C36.4354 24.2229 36.5569 24.1824 36.6379 24.0406C36.719 23.8989 36.638 23.8178 36.881 23.5951C36.9012 23.5748 36.9823 23.4128 36.7797 23.3723C36.7392 23.3723 36.7797 23.19 36.7797 23.19C36.6177 23.3318 36.5772 23.514 36.3139 23.3925C36.1721 23.3318 36.0911 23.3925 36.0506 23.4128C36.0506 23.4128 36.0304 23.3115 36.1316 23.271C36.4152 23.1697 36.4759 23.0685 36.4759 23.0077C36.4354 22.8659 36.4354 23.0077 36.4354 22.8457C36.4354 22.7849 36.5164 22.7039 36.5772 22.6229C36.7595 22.4001 36.9012 22.4811 36.962 22.5014C37.0835 22.4204 37.0835 22.4204 37.205 22.3799C37.3873 22.3191 37.7721 22.4204 37.9747 22.5216C38.0759 22.5621 38.1974 22.6027 38.319 22.5621C38.319 22.6229 38.2785 22.6634 38.2379 22.6634C38.1772 22.6837 38.0962 22.6634 38.0962 22.7039C38.0962 22.7242 38.1974 22.7444 38.2582 22.7444C38.5823 22.8254 38.9873 23.109 38.724 23.0482C38.6835 23.0482 38.9266 23.2102 39.0886 23.4533L39.6962 24.0406C39.6759 24.0811 39.4531 24.0406 38.7848 23.4128C38.6835 23.4938 39.6152 24.1824 39.9797 24.9318C39.9392 24.952 39.4734 24.79 39.3114 24.6077C39.0481 24.3444 38.7443 23.6558 38.6228 23.7571C38.6228 23.7571 39.1291 24.5672 39.3721 25.033C39.4936 25.2761 39.6152 25.6204 39.6152 25.8837C39.6557 27.1596 39.4734 27.0583 39.4734 27.0583C39.1696 26.0457 39.0278 24.8913 38.6025 24.3444C38.4202 24.1216 39.0683 25.2963 39.0886 26.3292M39.5139 19.6052C39.5139 19.6052 39.5139 19.5647 39.5139 19.5039C39.5139 19.4432 39.3114 19.4027 39.1898 19.4634C39.0076 19.5444 38.5417 19.8077 38.3595 19.7672V19.0989C38.7848 19.2811 38.9468 19.0989 39.0886 19.0989C39.5139 19.0989 39.5342 19.4837 39.5342 19.4837C39.5342 19.5242 39.5342 19.5647 39.5342 19.5849M39.0886 20.5166C39.4531 20.4558 39.5139 20.9014 39.5139 20.9014C39.4329 20.8204 39.2506 20.8001 39.1291 20.8811C38.724 21.1444 38.3595 21.1444 38.3595 21.1444V20.4761C38.3595 20.4761 38.4405 20.6178 39.1088 20.5166M38.2177 21.8533C37.5493 21.8938 36.1721 21.5292 35.8278 21.5292C35.0987 21.5292 34.7544 21.8128 34.7544 21.8128C34.7544 21.8128 34.7544 18.5318 34.7544 18.4102C34.7544 18.4102 35.7063 17.9647 36.3949 18.228C37.2455 18.5318 38.2177 18.4102 38.2177 18.4102V21.8735V21.8533ZM35.4633 22.3596C35.4835 22.5014 35.362 22.5216 35.362 22.5216C35.5443 22.5621 35.6455 22.4609 35.686 22.3799C35.7671 22.6837 35.4633 22.7039 35.362 22.7242C35.362 22.7242 35.524 22.7647 35.524 22.8659C35.5443 23.1292 35.7063 23.109 35.7468 23.0887C35.7468 23.1292 35.6861 23.271 35.5038 23.1292C35.4633 23.1697 35.5443 23.2102 35.5645 23.3318C35.5848 23.4938 35.5645 23.6356 35.7671 23.7368C35.6455 23.8178 35.524 23.5951 35.5038 23.6153C35.5038 23.6558 35.6658 23.7368 35.4633 24.1824C35.3823 24.1419 35.4228 24.1419 35.3215 24.0204C35.2405 23.9596 35.2202 23.9394 35.281 24.0406C35.3823 24.1824 35.4228 24.5065 35.3823 24.5875C35.281 24.547 35.3215 24.4659 35.2 24.3849C35.2 24.4254 35.2405 24.628 35.3417 24.7292C35.5443 24.9115 35.605 25.114 35.605 25.1546C35.605 25.3166 35.5645 25.5191 35.5443 25.7216C35.443 25.7216 35.3823 25.4381 35.3417 25.4583C35.3215 25.4583 35.3417 25.7216 35.524 25.8837C35.605 26.1267 35.5645 26.2685 35.5443 26.2685C35.524 26.2685 35.4228 26.0254 35.362 26.0659C35.605 26.6938 35.443 26.9166 35.362 27.1191C35.3012 26.9166 35.281 26.7748 35.2202 26.552C35.0785 26.6533 35.0582 26.8153 34.8962 26.9571C34.8962 26.6938 34.7544 26.0659 34.6329 25.9242C34.6329 25.9242 34.4101 26.4913 34.3291 26.7343C34.2076 27.0583 34.1873 27.4634 34.3291 27.7875C34.0253 27.3419 33.9848 26.5318 34.2481 26.4305C34.2683 26.3697 34.2481 26.1875 34.1671 26.2077C34.1671 26.309 34.1671 26.39 34.0861 26.471C33.8835 26.4102 33.9848 26.1672 33.9848 26.0862C34.2481 25.7621 34.086 25.7014 34.0658 25.7014C34.0455 25.7824 34.005 25.8634 33.924 25.9039C33.762 25.6204 33.8633 25.1546 34.1873 24.8102C34.1873 24.6887 34.0455 24.9115 33.9443 24.8913C33.924 24.6482 34.005 24.2229 34.4506 24.2027C34.3696 24.1824 34.3088 24.1621 34.2886 24.0811C34.4304 24.0609 34.8557 24.0204 34.7949 23.6963C34.7544 23.7368 34.7342 23.7976 34.6329 23.8583C34.5519 23.8989 34.4709 23.8989 34.4304 23.8583C34.6329 23.7976 34.5721 23.5546 34.3088 23.6153C34.2278 23.6356 34.1063 23.5546 34.1063 23.4533C34.1671 23.514 34.2886 23.4533 34.3493 23.433C34.6329 23.2508 34.8152 23.514 34.8557 23.5748C34.8557 23.5748 34.9974 23.2913 34.5721 23.2305C34.5316 23.1292 34.4506 22.9672 34.1671 22.9875C34.0658 22.6634 33.8025 22.8254 33.8025 22.9875C33.4987 22.7647 33.8025 22.4811 33.924 22.4406C34.005 22.4406 33.9848 22.7039 34.1266 22.6634C34.1671 22.6634 34.005 22.4811 34.0658 22.4001C34.2076 22.3191 34.2076 22.5014 34.2683 22.4406C34.3088 22.3191 34.4304 22.2583 34.5519 22.2583C34.8557 22.2178 35.0987 22.5419 35.3823 22.3799M34.5924 21.8128C34.5924 21.8128 34.1468 21.5697 33.6202 21.5292C33.1139 21.4887 32.081 21.8938 31.2911 21.8533V18.3697C31.2911 18.3697 32.2025 18.4913 32.5671 18.3495C33.8228 17.8634 34.6126 18.4102 34.6126 18.4102V21.8128H34.5924ZM31.1088 21.0634H30.6835V20.6381H31.1088V21.0634ZM31.1088 19.6052H30.6835V19.1799H31.1088V19.6052ZM30.1772 21.2052C29.6709 21.2052 29.6709 20.4558 30.1772 20.4558C30.6835 20.4558 30.6633 21.2052 30.1772 21.2052ZM30.1772 19.7267C29.6911 19.7267 29.6911 18.9773 30.1772 18.9773C30.6633 18.9773 30.6633 19.7267 30.1772 19.7267ZM33.4177 23.1697C33.3367 23.0077 33.519 22.8659 33.519 22.8659C33.519 23.2913 34.0658 23.0077 34.3493 23.1292C34.4101 23.1697 34.4709 23.2305 34.4911 23.2913C34.1873 23.0685 33.6 23.514 33.3974 23.1697M31.9392 26.8356C31.9392 26.9773 31.9392 27.0989 31.9797 27.2406C32.0405 27.4634 32.0202 27.4027 31.919 27.3216C31.838 27.2406 31.7772 27.1596 31.7367 27.0786C31.7367 27.0178 31.7772 26.9976 31.9392 26.8356ZM30.8253 23.7773C30.8253 23.7773 30.1164 24.2229 29.6506 24.0001C29.9949 23.8178 31.1898 23.0482 31.5139 22.8457C31.6759 22.8862 31.7367 22.8254 31.7772 22.7849C31.6557 22.7849 31.2506 22.8659 31.4531 22.4811C31.5342 22.8052 32.1012 22.5014 32.324 22.4609C32.9114 22.3191 32.8911 22.947 32.8506 23.2102C32.8506 23.3115 33.0329 23.3723 33.1139 23.352C32.9519 23.7571 32.6683 23.3723 32.6278 23.5343C32.6278 23.5951 32.4253 23.6558 32.4253 23.7976C32.4253 24.0204 32.5063 23.8989 32.5266 24.0609C32.5266 24.2229 32.4658 24.1014 32.4658 24.2634C32.4861 24.547 32.9519 24.2229 33.1342 24.3039C33.2354 24.3444 33.2962 24.4254 33.3772 24.4052C33.3974 24.3849 33.3772 24.2837 33.3772 24.2432C33.3772 24.1621 33.2152 24.1419 33.1342 24.0204C33.0734 23.9191 33.2152 23.5951 33.2759 23.514C33.3772 24.0406 33.8633 23.8786 33.9443 24.4052C33.9848 24.5672 33.7823 24.7292 33.9443 24.9723C33.8228 25.0938 33.6607 25.6811 33.9443 25.9647C33.9038 26.0862 33.843 26.3697 34.0861 26.552C34.005 26.714 34.0253 26.9368 34.0861 27.1394C33.9443 27.1394 33.9645 26.309 33.0734 26.2887C33.0734 26.2887 33.0531 26.39 33.0734 26.4305C33.1747 26.6128 33.3164 26.6128 33.2962 27.0583C33.2962 27.2001 33.1949 27.0381 33.1544 26.9976C33.0531 26.8963 32.9721 26.8963 32.9114 26.5723C32.5468 26.8558 32.5873 27.2001 32.6076 27.3824C32.6076 27.3824 32.5266 27.1596 32.4455 26.9368C32.4455 26.9368 32.8101 26.471 32.8709 26.3697C33.6202 25.0128 32.3848 26.8153 32.3848 26.7951C32.324 26.633 32.2633 26.5115 32.2228 26.471C32.2228 26.471 32.4455 26.228 32.5266 26.0254C33.1139 24.8102 32.1823 26.4305 32.1417 26.39C32.081 26.3292 32.0202 26.2482 31.9595 26.2685C31.9595 26.4508 31.8987 26.4305 31.919 26.6128C31.8177 26.7343 31.6152 26.9368 31.4734 27.0381C31.4734 27.0381 31.4329 26.6938 31.4531 26.6938C31.5342 26.6128 31.8177 26.2887 31.8785 26.2077C32.8304 24.709 31.4329 26.5723 31.4329 26.552C31.4329 26.4913 31.3519 26.39 31.2709 26.309C31.2709 26.309 31.5747 25.8837 31.6557 25.7216C32.243 24.5267 31.1898 26.2482 31.1696 26.2482C31.1493 26.2482 31.1493 26.2482 31.1088 26.228C31.0886 26.228 31.1493 25.8837 31.1898 25.6811C31.2709 25.2761 31.0481 25.6001 31.0076 26.228C30.9468 26.228 30.8253 26.2482 30.7645 26.2887C30.805 26.4508 30.8455 26.3292 30.9063 26.4913C30.9873 26.6938 30.7848 26.9976 30.9671 27.2406C31.0278 27.3216 31.0481 27.3216 31.0278 27.3824C30.9266 27.3824 30.8455 27.3824 30.7848 27.4634C30.643 26.8558 30.6633 26.5723 30.6835 25.9647C30.6835 25.6811 30.7848 25.2558 30.7443 25.2558C30.7038 25.2558 30.0759 26.8761 29.9139 27.2001C29.6506 27.1191 30.0759 25.7014 30.6228 25.033C30.6835 24.8102 30.3392 25.2558 30.1367 25.4178C29.9544 25.5799 29.7114 25.7824 29.4683 25.7216C29.7924 25.3773 30.562 24.7292 30.643 24.5672C30.7038 24.4254 30.1367 24.9925 29.5088 24.79C29.9139 24.5672 30.8455 24.1014 30.8455 23.7571M30.805 27.747C30.9063 27.8077 31.0278 27.8482 31.1493 27.8887C31.2911 28.2533 31.1493 28.5976 31.0683 28.4558C30.9266 28.1925 30.8861 27.99 30.805 27.747ZM40.3443 25.7216V17.6609C33.8633 17.033 28.9823 17.6609 28.9823 17.6609V25.7216C29.4886 31.19 34.6126 31.8178 34.6531 31.8178C35.5645 31.6558 39.8582 30.7849 40.324 25.7216" fill="#3A3A3A"/>
<path d="M2.71392 15.6759C1.17468 15.6759 0 14.4203 0 12.8608V2.81519C0 1.2557 1.17468 0 2.71392 0C4.25316 0 5.42785 1.2557 5.42785 2.81519V6.13671H3.17975V2.87595C3.17975 2.63291 2.97722 2.41013 2.71392 2.41013C2.45063 2.41013 2.2481 2.61266 2.2481 2.87595V12.8203C2.2481 13.0633 2.45063 13.2861 2.71392 13.2861C2.97722 13.2861 3.17975 13.0835 3.17975 12.8203V9.53924H5.42785V12.8608C5.42785 14.4 4.25316 15.6759 2.71392 15.6759Z" fill="#3A3A3A"/>
<path d="M9.53923 15.473V9.09329H8.62784V15.473H6.27847V0.202148H8.62784V6.78443H9.53923V0.202148H11.8886V15.473H9.53923Z" fill="#3A3A3A"/>
<path d="M15.3316 0.182617H12.9823V15.4738H15.3316V0.182617Z" fill="#3A3A3A"/>
<path d="M19.0785 15.6759C17.519 15.6759 16.3646 14.4203 16.3646 12.8608V2.81519C16.3646 1.27595 17.5393 0 19.0785 0C20.6177 0 21.7924 1.2557 21.7924 2.81519V6.13671H19.5443V2.87595C19.5443 2.63291 19.3418 2.41013 19.0785 2.41013C18.8152 2.41013 18.6127 2.61266 18.6127 2.87595V12.8203C18.6127 13.0633 18.8152 13.2861 19.0785 13.2861C19.3418 13.2861 19.5443 13.0835 19.5443 12.8203V9.53924H21.7924V12.8608C21.7924 14.4 20.6177 15.6759 19.0785 15.6759Z" fill="#3A3A3A"/>
<path d="M25.2962 10.5718H24.5468L24.9924 4.03L25.2962 10.5718ZM27.9696 15.473L26.3696 0.202148H23.5544L21.9949 15.4933H24.1215L24.3241 12.9211H25.3975L25.5393 15.4933H27.9494L27.9696 15.473Z" fill="#3A3A3A"/>
<path d="M32.5063 15.4734L32.324 15.1696C31.9392 15.4937 31.4126 15.6759 30.805 15.6759C29.3063 15.6759 28.3544 14.5823 28.3544 12.8608V2.81519C28.3544 1.27595 29.5291 0 31.0683 0C32.6076 0 33.7822 1.2557 33.7822 2.81519V6.13671H31.5341V2.87595C31.5341 2.63291 31.3316 2.41013 31.0683 2.41013C30.805 2.41013 30.6025 2.61266 30.6025 2.87595V13.0025C30.6025 13.2456 30.805 13.4684 31.0683 13.4684C31.3316 13.4684 31.5341 13.2658 31.5341 13.0025V10.0456H31.0683V8.02025H33.8228V15.4937H32.5063V15.4734Z" fill="#3A3A3A"/>
<path d="M37.9747 12.8C37.9747 13.043 37.7722 13.2658 37.5089 13.2658C37.2456 13.2658 37.0431 13.0633 37.0431 12.8V2.87595C37.0431 2.63291 37.2456 2.41013 37.5089 2.41013C37.7722 2.41013 37.9747 2.61266 37.9747 2.87595V12.8203V12.8ZM40.3443 12.8608V2.81519C40.3443 1.27595 39.0684 0 37.5291 0C35.9899 0 34.7139 1.2557 34.7139 2.81519V12.8608C34.7139 14.4 35.9696 15.6759 37.5291 15.6759C39.0886 15.6759 40.3443 14.4203 40.3443 12.8608Z" fill="#3A3A3A"/>
<path d="M2.71391 31.8178H-1.52588e-05V17.6406H2.71391C3.76707 17.6406 5.04302 18.2482 5.04302 20.0508V23.1292C5.04302 23.7976 4.67847 24.2229 4.11138 24.6077C4.65821 24.9723 5.04302 25.3976 5.04302 26.0862V29.4077C5.04302 31.2102 3.76707 31.8178 2.71391 31.8178ZM2.91644 20.3748C2.91644 19.9697 2.77467 19.8077 2.55188 19.8077H2.18733V23.5748H2.55188C2.77467 23.5748 2.91644 23.4128 2.91644 23.0077V20.3748ZM2.91644 26.2887C2.91644 25.8837 2.77467 25.7216 2.55188 25.7216H2.18733V29.671H2.55188C2.77467 29.671 2.91644 29.509 2.91644 29.1039V26.2887Z" fill="#3A3A3A"/>
<path d="M8.4861 31.9998C7.04813 31.9998 5.87344 30.8251 5.87344 29.3871V20.0707C5.87344 18.6327 7.04813 17.458 8.4861 17.458C9.92408 17.458 11.0988 18.6327 11.0988 20.0707V29.3871C11.0988 30.8251 9.92408 31.9998 8.4861 31.9998ZM8.91142 20.1314C8.91142 19.9086 8.70889 19.7061 8.4861 19.7061C8.26332 19.7061 8.06079 19.9086 8.06079 20.1314V29.3466C8.06079 29.5694 8.26332 29.7719 8.4861 29.7719C8.70889 29.7719 8.91142 29.5694 8.91142 29.3466V20.1314Z" fill="#3A3A3A"/>
<path d="M14.6026 31.9998C13.1646 31.9998 11.9899 30.8251 11.9899 29.3871V20.0707C11.9899 18.6327 13.1646 17.458 14.6026 17.458C16.0405 17.458 17.2152 18.6327 17.2152 20.0707V29.3871C17.2152 30.8251 16.0405 31.9998 14.6026 31.9998ZM15.0279 20.1314C15.0279 19.9086 14.8253 19.7061 14.6026 19.7061C14.3798 19.7061 14.1772 19.9086 14.1772 20.1314V29.3466C14.1772 29.5694 14.3798 29.7719 14.6026 29.7719C14.8253 29.7719 15.0279 29.5694 15.0279 29.3466V20.1314Z" fill="#3A3A3A"/>
<path d="M20.4759 19.8077V31.8178H18.3494V19.8077H17.3975V17.6406H21.4481V19.8077H20.4759Z" fill="#3A3A3A"/>
<path d="M24.6886 31.8178V25.9039H23.838V31.8178H21.6506V17.6406H23.838V23.7571H24.6886V17.6406H26.8557V31.8178H24.6886Z" fill="#3A3A3A"/>
</g>
<defs>
<clipPath id="clip0_1169_8361">
<rect width="40.3443" height="32" fill="white"/>
</clipPath>
</defs>
</svg>
