<svg width="116" height="73" viewBox="0 0 116 73" fill="none" xmlns="http://www.w3.org/2000/svg">
<path d="M14.1864 38.8838C11.1195 38.8838 8.65507 38.1901 6.79303 36.8027C4.93099 35.3788 3.99997 33.4072 3.99997 30.888C3.99997 28.3688 4.78495 26.3972 6.3549 24.9733C7.92486 23.5494 10.3163 22.5271 13.5292 21.9064L23.2228 19.9897C23.2228 17.9086 22.7481 16.3569 21.7989 15.3346C20.8496 14.2758 19.4439 13.7464 17.5819 13.7464C15.9024 13.7464 14.5698 14.148 13.584 14.9512C12.6347 15.718 11.9775 16.8315 11.6124 18.2919L4.49286 17.9633C5.07703 14.86 6.50094 12.4868 8.7646 10.8438C11.0283 9.16436 13.9674 8.32463 17.5819 8.32463C21.7441 8.32463 24.884 9.38342 27.0016 11.501C29.1558 13.5821 30.2328 16.5759 30.2328 20.4825V31.1071C30.2328 31.8738 30.3606 32.4032 30.6162 32.6953C30.9083 32.9873 31.3281 33.1334 31.8758 33.1334H32.8068V38.2266C32.5877 38.2996 32.2226 38.3544 31.7115 38.3909C31.2369 38.4274 30.744 38.4456 30.2328 38.4456C29.028 38.4456 27.9509 38.2631 27.0016 37.898C26.0524 37.4964 25.3221 36.8209 24.811 35.8717C24.2998 34.8859 24.0443 33.5532 24.0443 31.8738L24.6467 32.3119C24.3546 33.5898 23.7157 34.7398 22.7299 35.7621C21.7806 36.7479 20.5758 37.5146 19.1153 38.0623C17.6549 38.6099 16.0119 38.8838 14.1864 38.8838ZM15.6103 33.7906C17.1803 33.7906 18.5312 33.4802 19.663 32.8595C20.7948 32.2389 21.6711 31.3809 22.2918 30.2856C22.9124 29.1903 23.2228 27.8941 23.2228 26.3972V24.7543L15.6651 26.2877C14.0951 26.6163 12.9633 27.1092 12.2696 27.7664C11.6124 28.387 11.2838 29.2085 11.2838 30.2308C11.2838 31.3626 11.6489 32.2389 12.3791 32.8595C13.1459 33.4802 14.2229 33.7906 15.6103 33.7906Z" fill="white"/>
<path d="M34.5 38.8838V0H41.51V22.8374L53.5037 9.63879H62.1567L50.7107 21.7968L62.5401 38.8838H54.6538L46.1103 25.959L41.51 30.8332V38.8838H34.5Z" fill="white"/>
<path d="M76.018 38.8838C73.0972 38.8838 70.9431 38.2083 69.5557 36.8574C68.2048 35.5065 67.5293 33.3889 67.5293 30.5046V2.79306H74.5394V29.8474C74.5394 31.1983 74.8315 32.1476 75.4156 32.6952C75.9998 33.2064 76.9126 33.4619 78.1539 33.4619H82.2614V38.8838H76.018ZM62.929 15.0606V9.63879H82.2614V15.0606H62.929Z" fill="white"/>
<path d="M93.8139 38.8838C90.7471 38.8838 88.2826 38.19 86.4206 36.8027C84.5585 35.3787 83.6275 33.4072 83.6275 30.8879C83.6275 28.3687 84.4125 26.3971 85.9824 24.9732C87.5524 23.5493 89.9438 22.527 93.1568 21.9063L102.85 19.9895C102.85 17.9084 102.376 16.3567 101.426 15.3344C100.477 14.2756 99.0715 13.7462 97.2094 13.7462C95.5299 13.7462 94.1973 14.1479 93.2115 14.9511C92.2623 15.7178 91.6051 16.8314 91.24 18.2918L84.1204 17.9632C84.7046 14.8598 86.1285 12.4866 88.3921 10.8436C90.6558 9.16416 93.5949 8.32441 97.2094 8.32441C101.372 8.32441 104.512 9.38323 106.629 11.5008C108.783 13.5819 109.86 16.5758 109.86 20.4824V31.107C109.86 31.8737 109.988 32.4031 110.244 32.6952C110.536 32.9873 110.956 33.1333 111.503 33.1333H112.434V38.2266C112.215 38.2996 111.85 38.3544 111.339 38.3909C110.864 38.4274 110.371 38.4456 109.86 38.4456C108.655 38.4456 107.578 38.2631 106.629 37.898C105.68 37.4964 104.95 36.8209 104.439 35.8716C103.927 34.8859 103.672 33.5532 103.672 31.8737L104.274 32.3119C103.982 33.5897 103.343 34.7398 102.357 35.7621C101.408 36.7479 100.203 37.5146 98.7429 38.0623C97.2825 38.6099 95.6395 38.8838 93.8139 38.8838ZM95.2379 33.7905C96.8078 33.7905 98.1587 33.4802 99.2905 32.8595C100.422 32.2388 101.299 31.3808 101.919 30.2855C102.54 29.1902 102.85 27.8941 102.85 26.3971V24.7542L95.2926 26.2876C93.7227 26.6162 92.5909 27.1091 91.8971 27.7663C91.24 28.387 90.9114 29.2085 90.9114 30.2307C90.9114 31.3626 91.2765 32.2388 92.0067 32.8595C92.7734 33.4802 93.8505 33.7905 95.2379 33.7905Z" fill="white"/>
<path d="M116 45V50.343H0V45H116Z" fill="url(#paint0_linear_583_1239)"/>
<path d="M6.72 68.24C5.96 68.24 5.28 68.06 4.68 67.7C4.08 67.3267 3.58667 66.82 3.2 66.18L3.14 68H2V54H3.2V59.82C3.58667 59.18 4.08 58.68 4.68 58.32C5.28 57.9467 5.96 57.76 6.72 57.76C7.6 57.76 8.38 57.9867 9.06 58.44C9.74 58.88 10.2733 59.4933 10.66 60.28C11.0467 61.0667 11.24 61.9733 11.24 63C11.24 64.0133 11.0467 64.92 10.66 65.72C10.2733 66.5067 9.74 67.1267 9.06 67.58C8.38 68.02 7.6 68.24 6.72 68.24ZM6.48 67.16C7.17333 67.16 7.78667 66.9867 8.32 66.64C8.85333 66.28 9.27333 65.7867 9.58 65.16C9.88667 64.5333 10.04 63.8133 10.04 63C10.04 62.1867 9.88667 61.4667 9.58 60.84C9.28667 60.2133 8.87333 59.7267 8.34 59.38C7.80667 59.02 7.19333 58.84 6.5 58.84C5.86 58.84 5.28667 59.02 4.78 59.38C4.28667 59.7267 3.9 60.2133 3.62 60.84C3.34 61.4667 3.2 62.1867 3.2 63C3.2 63.8133 3.34 64.5333 3.62 65.16C3.9 65.7867 4.28667 66.28 4.78 66.64C5.27333 66.9867 5.84 67.16 6.48 67.16Z" fill="white"/>
<path d="M13.9253 72.24C13.712 72.24 13.4586 72.2 13.1653 72.12C12.872 72.04 12.532 71.92 12.1453 71.76L12.5853 70.74C12.932 70.8733 13.2253 70.9733 13.4653 71.04C13.7053 71.1067 13.892 71.14 14.0253 71.14C14.412 71.14 14.7253 71.0333 14.9653 70.82C15.2186 70.6067 15.4253 70.3133 15.5853 69.94L16.3853 68L12.1653 58H13.4053L17.0053 66.56L20.6253 58H21.8853L16.9853 69.6C16.7453 70.16 16.492 70.6333 16.2253 71.02C15.972 71.42 15.6586 71.72 15.2853 71.92C14.9253 72.1333 14.472 72.24 13.9253 72.24Z" fill="white"/>
<path d="M31.602 68L27.282 54H28.562L32.302 66.04L35.942 54H37.222L40.782 66.04L44.602 54H45.882L41.462 68H40.062L36.582 56.14L33.002 68H31.602Z" fill="white"/>
<path d="M51.1052 68.24C50.1452 68.24 49.2918 68.02 48.5452 67.58C47.8118 67.1267 47.2318 66.5067 46.8052 65.72C46.3918 64.9333 46.1852 64.0267 46.1852 63C46.1852 61.9733 46.3918 61.0667 46.8052 60.28C47.2185 59.4933 47.7918 58.88 48.5252 58.44C49.2718 57.9867 50.1185 57.76 51.0652 57.76C52.0252 57.76 52.8718 57.9867 53.6052 58.44C54.3518 58.88 54.9318 59.4933 55.3452 60.28C55.7585 61.0667 55.9652 61.9733 55.9652 63C55.9652 64.0267 55.7585 64.9333 55.3452 65.72C54.9318 66.5067 54.3585 67.1267 53.6252 67.58C52.8918 68.02 52.0518 68.24 51.1052 68.24ZM51.1052 67.14C51.8252 67.14 52.4585 66.9667 53.0052 66.62C53.5518 66.26 53.9785 65.7733 54.2852 65.16C54.6052 64.5333 54.7652 63.8133 54.7652 63C54.7652 62.1867 54.6052 61.4733 54.2852 60.86C53.9785 60.2333 53.5452 59.7467 52.9852 59.4C52.4252 59.04 51.7852 58.86 51.0652 58.86C50.3452 58.86 49.7052 59.04 49.1452 59.4C48.5985 59.7467 48.1652 60.2333 47.8452 60.86C47.5385 61.4733 47.3852 62.1867 47.3852 63C47.3852 63.8133 47.5452 64.5333 47.8652 65.16C48.1852 65.7733 48.6252 66.26 49.1852 66.62C49.7452 66.9667 50.3852 67.14 51.1052 67.14Z" fill="white"/>
<path d="M58.3672 68V54H59.5672V62.84L64.1672 58H65.7272L62.0272 61.92L66.1672 68H64.6272L61.2072 62.78L59.5672 64.52V68H58.3672Z" fill="white"/>
<path d="M71.8864 68.24C70.9264 68.24 70.0731 68.02 69.3264 67.58C68.5931 67.1267 68.0131 66.5067 67.5864 65.72C67.1731 64.9333 66.9664 64.0267 66.9664 63C66.9664 61.9733 67.1731 61.0667 67.5864 60.28C67.9997 59.4933 68.5664 58.88 69.2864 58.44C70.0197 57.9867 70.8531 57.76 71.7864 57.76C72.7331 57.76 73.5331 57.9933 74.1864 58.46C74.8531 58.9133 75.3597 59.5467 75.7064 60.36C76.0531 61.16 76.2264 62.0867 76.2264 63.14H68.1464C68.2131 64.4067 68.5797 65.3933 69.2464 66.1C69.9264 66.7933 70.8064 67.14 71.8864 67.14C72.6597 67.14 73.3131 66.9533 73.8464 66.58C74.3931 66.1933 74.8197 65.7 75.1264 65.1L76.1264 65.72C75.8731 66.2133 75.5397 66.6533 75.1264 67.04C74.7264 67.4133 74.2531 67.7067 73.7064 67.92C73.1597 68.1333 72.5531 68.24 71.8864 68.24ZM68.2664 62.04H74.9264C74.8864 61.4 74.7331 60.8467 74.4664 60.38C74.1997 59.9 73.8397 59.5267 73.3864 59.26C72.9331 58.9933 72.3997 58.86 71.7864 58.86C71.1864 58.86 70.6264 58.9933 70.1064 59.26C69.5864 59.5267 69.1597 59.9 68.8264 60.38C68.5064 60.86 68.3197 61.4133 68.2664 62.04Z" fill="white"/>
<path d="M78.4258 68V54H79.6258V68H78.4258Z" fill="white"/>
<path d="M86.945 68.24C85.985 68.24 85.1317 68.02 84.385 67.58C83.6517 67.1267 83.0717 66.5067 82.645 65.72C82.2317 64.9333 82.025 64.0267 82.025 63C82.025 61.9733 82.2317 61.0667 82.645 60.28C83.0583 59.4933 83.6317 58.88 84.365 58.44C85.1117 57.9867 85.9583 57.76 86.905 57.76C87.865 57.76 88.7117 57.9867 89.445 58.44C90.1917 58.88 90.7717 59.4933 91.185 60.28C91.5983 61.0667 91.805 61.9733 91.805 63C91.805 64.0267 91.5983 64.9333 91.185 65.72C90.7717 66.5067 90.1983 67.1267 89.465 67.58C88.7317 68.02 87.8917 68.24 86.945 68.24ZM86.945 67.14C87.665 67.14 88.2983 66.9667 88.845 66.62C89.3917 66.26 89.8183 65.7733 90.125 65.16C90.445 64.5333 90.605 63.8133 90.605 63C90.605 62.1867 90.445 61.4733 90.125 60.86C89.8183 60.2333 89.385 59.7467 88.825 59.4C88.265 59.04 87.625 58.86 86.905 58.86C86.185 58.86 85.545 59.04 84.985 59.4C84.4383 59.7467 84.005 60.2333 83.685 60.86C83.3783 61.4733 83.225 62.1867 83.225 63C83.225 63.8133 83.385 64.5333 83.705 65.16C84.025 65.7733 84.465 66.26 85.025 66.62C85.585 66.9667 86.225 67.14 86.945 67.14Z" fill="white"/>
<path d="M97.907 68L103.667 54H104.987L110.747 68H109.387L107.607 63.66H101.047L99.267 68H97.907ZM101.507 62.5H107.147L104.327 55.62L101.507 62.5Z" fill="white"/>
<path d="M112.949 68V54H114.229V68H112.949Z" fill="white"/>
<defs>
<linearGradient id="paint0_linear_583_1239" x1="110.5" y1="79" x2="13.6944" y2="8.60447" gradientUnits="userSpaceOnUse">
<stop stop-color="#A1CCA5"/>
<stop offset="1" stop-color="#0C92B4"/>
</linearGradient>
</defs>
</svg>
