<svg width="60" height="32" viewBox="0 0 60 32" fill="none" xmlns="http://www.w3.org/2000/svg">
<path d="M36.7198 8.80679L40.8313 8.7996C41.1946 8.7996 42.1643 8.7484 42.4636 8.82693C42.4919 8.83433 42.5 8.85419 42.5139 8.87905C42.5842 9.00364 42.5528 9.22654 42.5132 9.35667C42.366 9.50342 41.8952 9.47945 41.6827 9.52244C41.5731 9.54457 41.4674 9.58961 41.3646 9.63218C41.2922 9.73794 41.2261 9.84902 41.1823 9.97004C41.0726 10.2733 41.0133 10.6323 40.9924 10.9532C40.9512 11.5847 40.9756 12.2296 40.9753 12.8626L40.9764 16.1762L40.9753 18.9484C40.975 19.8962 40.8979 20.8648 41.3068 21.7472C42.4686 22.2154 44.3445 22.2745 45.267 21.2901C45.6802 20.8491 45.8278 20.1696 46.5861 20.3921C46.5326 20.6589 46.4193 21.0059 46.3453 21.2785C46.2548 21.6543 45.8485 22.7428 45.704 23.1088C45.6177 23.1561 45.5409 23.2057 45.4404 23.2047C44.8964 23.1992 44.3524 23.1946 43.8081 23.1932L39.7333 23.1884L37.7553 23.1919C37.4143 23.1924 36.8137 23.2087 36.4939 23.1538C36.4937 22.9807 36.4795 22.7989 36.4688 22.6255C37.0516 22.4247 37.7682 22.4633 37.855 21.6055C37.9166 20.9975 37.8896 20.3524 37.8899 19.7384L37.8907 16.299L37.8904 12.4453C37.8901 11.7548 37.9077 11.0243 37.8581 10.3372C37.8469 10.181 37.7039 9.94308 37.6095 9.81406C37.3522 9.46258 36.9154 9.45227 36.5115 9.39863C36.4882 9.22316 36.436 9.03184 36.506 8.87882C36.6009 8.8054 36.5863 8.82667 36.7198 8.80679Z" fill="#3A3A3A"/>
<path d="M29.6885 8.81118L29.768 8.80979C30.9562 8.80017 32.1447 8.79749 33.3329 8.80179C33.8756 8.80164 34.4185 8.8009 34.9612 8.80248C35.1002 8.8029 35.4391 8.78265 35.5315 8.87191C35.6025 9.0723 35.6196 9.40885 35.3368 9.43214C34.8062 9.47589 34.3493 9.67015 34.2661 10.2645C34.1557 11.0545 34.183 11.901 34.1825 12.7036V17.668C34.183 18.9143 34.3241 19.9119 33.9414 21.1155C33.1865 23.49 31.1713 23.7112 29.0885 23.452C27.482 23.084 26.7318 22.0539 26.457 20.468C27.3952 20.2867 27.1696 20.6234 27.5474 21.199C28.0336 21.94 29.3792 22.4122 30.1738 21.8711C30.5383 21.6228 30.8817 21.14 30.9706 20.7266C31.1671 19.812 31.1136 18.8549 31.1128 17.9263L31.1117 14.8946L31.1109 12.2461C31.1107 11.5355 31.1991 10.4738 30.8484 9.8382C30.5937 9.37651 29.8511 9.58451 29.5253 9.31791C29.4724 9.2745 29.4973 8.95395 29.5191 8.88457C29.5912 8.81339 29.5741 8.83416 29.6885 8.81118Z" fill="#3A3A3A"/>
<path d="M46.6648 8.81876C47.0601 8.78655 47.5173 8.80206 47.9178 8.80135C49.393 8.79878 50.8687 8.80407 52.3438 8.79804C52.4595 8.79757 52.582 8.79248 52.6657 8.88665C52.7213 8.94941 52.7436 9.03038 52.7412 9.1135C52.7163 9.70511 51.8911 9.25095 51.3413 9.74747C51.2826 9.94167 51.1958 10.1978 51.1827 10.3942C51.1365 11.0873 51.1501 11.7954 51.1507 12.4903L51.1517 15.8035L51.1514 19.0667C51.1512 19.7274 51.1438 20.4003 51.1829 21.0609C51.1945 21.2555 51.2815 21.4913 51.3631 21.6673C51.8373 22.0506 53.0793 22.0998 53.6417 22.0504C54.7108 21.9566 55.3737 21.4559 55.9145 20.5651C56.0066 20.4131 56.5157 20.3566 56.7051 20.3514V20.6782C56.4318 20.9262 56.0493 22.8263 55.7564 23.1532C55.6748 23.1928 55.5205 23.1999 55.429 23.1995C53.5074 23.1897 51.5832 23.1896 49.6616 23.1893L47.718 23.1901C47.4903 23.1905 46.7548 23.2567 46.6263 23.0999C46.6179 22.9656 46.6465 22.5661 46.7729 22.5505C47.2316 22.4936 47.3258 22.4385 47.7151 22.1846C47.7639 21.9898 47.9183 21.8356 47.9343 21.6433C47.9732 21.1764 47.9622 20.6796 47.964 20.2103L47.9674 17.4594V13.0116C47.9674 12.2398 47.9734 11.4648 47.9622 10.695C47.943 10.1807 47.8717 9.7599 47.3368 9.5448C47.1388 9.46522 46.791 9.48156 46.6564 9.34831C46.5583 9.25108 46.6402 8.94524 46.6648 8.81876Z" fill="#3A3A3A"/>
<path d="M17.5938 4H18.1675C18.3641 4.15266 18.9872 4.26678 19.2525 4.3836C19.5481 4.51374 19.8421 4.63891 20.1089 4.83201C21.6324 5.92209 22.7101 7.51814 23.361 9.25967C23.4551 9.51158 23.6014 9.79323 23.676 10.0495C23.9401 10.9569 24.2133 11.87 24.3787 12.8016C24.4665 13.3274 24.4488 13.8639 24.4864 14.3946C24.51 14.73 24.5861 15.0695 24.6034 15.4C24.6436 16.1664 24.6047 16.8787 24.5181 17.6404C24.4343 18.3776 24.4642 19.1472 24.278 19.8787C24.1954 20.2308 24.0657 20.5779 23.975 20.9287C23.8811 21.2487 23.8007 21.5725 23.6971 21.889C23.6053 22.1241 23.5117 22.3645 23.4124 22.5963C23.3234 22.8039 23.268 23.0932 23.1687 23.2863C22.9103 23.7889 22.565 24.525 22.2383 24.9757C21.5188 25.9684 20.556 27.0417 19.3988 27.5099C19.2166 27.5813 18.307 27.9162 18.2152 28H17.6109C17.75 27.549 18.058 27.5531 18.3188 27.2936C20.4156 25.2078 21.6017 22.5453 22.207 19.6835C22.4934 18.3293 22.4604 16.7567 22.4631 15.3706C22.4709 11.4552 21.08 7.30786 18.1965 4.5738C17.9306 4.32174 17.7687 4.42331 17.5938 4Z" fill="#3A3A3A"/>
<path d="M9.44626 4H9.98838C9.77835 4.40663 9.39967 4.54781 9.11455 4.84006C8.64404 5.32234 8.1292 5.94137 7.71068 6.4757C7.56099 6.73275 7.41816 6.99373 7.26976 7.25172C7.03051 7.66652 6.76433 8.07662 6.55449 8.50681C6.45057 8.71982 6.4144 9.03932 6.31016 9.249C5.7197 10.4368 5.43639 11.7306 5.30736 13.0436C5.27528 13.37 5.18867 13.7111 5.1659 14.0416C5.0651 15.4806 5.08473 16.931 5.19351 18.3692C5.21084 18.5983 5.29345 18.8617 5.31145 19.082C5.37827 19.9003 5.58759 20.7162 5.79422 21.5098C5.8619 21.7697 6.11651 22.325 6.21776 22.5958C6.6233 23.681 7.23277 24.7736 7.88666 25.7276C8.08023 26.01 8.47796 26.4085 8.70398 26.7007C8.74865 26.7585 9.11482 27.1452 9.16854 27.1885C9.57043 27.5122 9.70877 27.5276 9.96322 28H9.49916C9.36967 27.888 9.04903 27.8328 8.88347 27.7614C8.53419 27.6108 8.04692 27.4736 7.72238 27.2824C5.95777 26.2426 4.8781 24.3987 4.13661 22.5455C4.00131 22.2073 3.85008 21.8682 3.73232 21.5229C3.4953 20.645 3.32431 19.7442 3.18779 18.8463C3.14058 18.5326 3.14468 18.1301 3.0485 17.8327L2.98438 17.8165V14.1843C3.14355 14.0045 3.17883 13.1003 3.22418 12.8287C3.7491 9.68485 4.99615 6.33436 7.84603 4.59818C8.12842 4.42614 9.35104 4.0934 9.44626 4Z" fill="#3A3A3A"/>
<path d="M10.1633 4H10.6654C10.7787 4.07995 11.5522 4.30596 11.8556 4.44992C12.0711 4.40564 13.0588 4.11737 13.1753 4H13.7669C13.5877 4.39139 12.9093 4.68567 12.6527 5.01218C12.3873 5.34976 12.02 5.69982 11.7742 6.0345C11.4585 6.45355 11.1931 6.91727 10.9116 7.3552C10.6175 7.8128 10.4554 8.18159 10.2537 8.68847C10.1393 8.97603 9.93477 9.28488 9.83245 9.58421C9.68475 10.0164 9.56454 10.4615 9.46588 10.9074C9.39404 11.3094 9.16545 11.8633 9.1308 12.2602C9.08188 12.8209 8.96206 13.4155 8.90989 13.965C8.75466 15.697 8.80245 17.4412 9.05229 19.1621C9.14578 19.8348 9.20833 20.353 9.42827 21.0084C9.55496 21.3859 9.60383 21.8253 9.76349 22.2074C9.92535 22.5949 10.0782 22.977 10.2609 23.3557C10.3454 23.539 10.5318 24.0402 10.6207 24.1725C10.9248 24.6249 11.234 25.0994 11.5029 25.575C11.5272 25.6181 11.5463 25.7349 11.5022 25.7976C11.2973 26.0837 11.018 26.4768 10.7384 26.6814C10.6108 26.7747 10.1949 26.2736 10.094 26.1713C9.26043 25.327 8.63002 24.3101 8.14899 23.2302C7.95714 22.7995 7.78185 22.453 7.63551 21.9947C6.47589 18.3766 6.39159 14.4996 7.39289 10.8345C7.48771 10.4856 7.5861 10.0548 7.70387 9.71549C7.87085 9.23449 8.1743 8.7142 8.36211 8.2305C8.41089 8.10484 8.51511 7.90607 8.58627 7.79355C8.95598 7.20905 9.31997 6.61039 9.78458 6.09512C9.95696 5.90423 10.1365 5.72035 10.3216 5.54199C10.479 5.38741 10.8661 5.12523 10.9547 4.95373C10.9542 4.59576 10.3163 4.45744 10.1633 4Z" fill="#3A3A3A"/>
<path d="M16.8682 5.28711C17.646 5.75172 18.5075 7.04854 18.954 7.83475C19.5753 8.92852 20.021 10.2619 20.3591 11.4678C20.4823 11.9073 20.5209 12.3671 20.58 12.8176C20.6822 13.2532 20.68 13.5974 20.7446 14.0192C20.9303 15.1114 20.9021 16.2813 20.8586 17.3896C20.8321 18.0647 20.6147 18.9069 20.5441 19.5634C20.4291 20.6337 20.1754 21.3663 19.7772 22.3584C19.5401 22.9493 19.3379 23.5897 19.004 24.1434C18.5222 24.9649 18.0697 25.6874 17.3591 26.3399C17.2348 26.454 16.5772 26.9883 16.5465 27.0346C16.6531 27.3204 17.3416 27.5694 17.3911 27.9999H16.8956C16.8193 27.9375 15.7656 27.567 15.607 27.5271C15.3194 27.6886 14.5141 27.8855 14.3917 27.9999H13.8633C14.127 27.574 14.4256 27.4462 14.778 27.1334C14.9413 26.9885 15.1387 26.6915 15.2938 26.5211C16.8931 24.765 17.7445 22.5836 18.3656 20.3264C18.4468 20.031 18.4475 19.649 18.5036 19.3409C18.8228 17.327 18.8596 15.2411 18.5536 13.2228C18.4756 12.7084 18.45 11.9589 18.3006 11.4403C17.9369 10.1966 17.5109 8.93856 16.908 7.78887C16.6689 7.33292 16.2921 6.89801 16.0917 6.42573C15.969 6.13658 16.6315 5.44832 16.8682 5.28711Z" fill="#3A3A3A"/>
<path d="M15.0543 7.77441C15.1164 7.80788 15.2574 7.88206 15.2909 7.94307C15.7218 8.72885 16.0973 9.65864 16.3855 10.5074C16.4208 10.6761 16.4182 10.8127 16.461 10.9854C16.5524 11.3537 16.6902 11.7292 16.7626 12.1019C16.8799 12.7055 17.0021 13.3745 17.09 13.9825C17.1728 14.5548 17.0965 15.2243 17.1334 15.8025C17.112 16.4692 17.1661 17.4323 17.1002 18.0772C17.0026 19.0319 16.7159 20.1383 16.4692 21.0602C16.4039 21.3045 16.3568 21.6111 16.2847 21.8343C16.1986 22.1009 16.0103 22.437 15.9104 22.7006C15.7109 23.2268 15.5074 23.68 15.2356 24.1734C15.1122 24.3975 14.9146 24.6802 14.8158 24.8958C14.9053 25.0704 15.3156 25.5955 15.2658 25.731C15.2054 25.895 14.5878 26.7701 14.3808 26.6678C14.2242 26.5905 13.9545 26.3169 13.7993 26.1933C13.6132 26.317 13.5839 26.38 13.4197 26.538C13.2616 26.6903 12.937 26.8592 12.8691 27.0907C12.8582 27.1276 12.8709 27.2055 12.9004 27.2289C13.1723 27.4447 13.5661 27.6039 13.6666 27.9999H12.9791C12.9574 27.9814 12.0392 27.5886 11.9426 27.5517C11.8273 27.5616 10.7149 27.9504 10.6436 27.9999H10.1953C10.246 27.832 10.3336 27.7075 10.4538 27.582C10.5774 27.4531 10.7624 27.4144 10.891 27.2964C11.0665 27.1355 12.2145 25.839 12.2595 25.6941C12.341 25.4321 12.5915 25.1854 12.7407 24.9515C12.9085 24.6854 13.0655 24.4127 13.2114 24.134C13.5103 23.5664 14.012 22.5097 14.1942 21.8893C14.4594 20.8513 14.715 19.9115 14.885 18.848C15.0854 17.5949 15.0011 16.4707 15.0286 15.2168C15.0695 13.3481 14.5272 11.6815 14.1978 9.89229C14.1325 9.53753 14.8567 8.18097 15.0543 7.77441Z" fill="#3A3A3A"/>
<path d="M13.8169 4H14.3504C14.4227 4.07377 15.4081 4.3709 15.5969 4.44359C15.8211 4.38203 16.785 4.12528 16.9156 4H17.4144C17.3278 4.36464 16.8844 4.48479 16.6419 4.72658C15.6672 5.69832 14.8135 6.84768 14.2483 8.10678C14.1265 8.34379 13.9748 8.57094 13.8611 8.81159C13.6193 9.32813 13.4651 9.8566 13.3019 10.4018C12.9548 11.5619 12.7107 12.7871 12.5944 13.993C12.5726 14.2194 12.5022 14.4542 12.4894 14.6793C12.4362 15.6133 12.4183 16.5747 12.5143 17.5055C12.6266 18.6757 12.8657 19.7758 13.0888 20.9249C13.157 21.2762 13.4824 21.7979 13.3745 22.154C13.2307 22.6286 12.8065 23.8702 12.3931 24.1453C12.3509 24.0603 12.2849 23.9472 12.2287 23.873C11.7913 23.3335 11.6669 22.7309 11.4273 22.1131C11.1756 21.4642 11.0603 20.9598 10.9063 20.2922C10.077 16.8483 10.2508 13.2389 11.4073 9.89062C11.688 9.05078 11.9785 8.3925 12.4012 7.61445C12.4508 7.52323 12.7257 7.12821 12.7212 7.09537C12.6852 6.83509 12.3036 6.62898 12.3447 6.30778C12.3724 5.95849 12.8695 5.50824 13.1123 5.29089C13.3999 5.38046 13.5299 5.55951 13.7661 5.77164C13.9864 5.59965 14.6064 5.11235 14.7648 4.91149C14.4901 4.50614 14.0847 4.40878 13.8169 4Z" fill="#3A3A3A"/>
</svg>
