<svg width="66" height="38" viewBox="0 0 66 38" fill="none" xmlns="http://www.w3.org/2000/svg">
<path d="M5.44937 6.03809H19.0955L19.1287 6.07212V17.5423H20.2243V6.07212L20.2576 6.03809H33.9037V17.5423H35.0325V6.03809H48.6786L48.7118 19.7206L49.1103 19.2782L49.3759 19.0059L49.7411 18.6995L49.7743 18.6655L49.8075 6.03809H63.4536L63.4868 6.07212V25.7791L63.4536 25.8131H59.6686L59.6022 26.1875L58.6061 30.3059L58.5065 30.5782L57.7761 30.7484L56.5476 30.9866L55.1199 31.1908L54.0906 31.2929L52.8953 31.361H51.8993L51.0028 31.2929L50.1727 31.1568L49.5087 30.9866L48.8779 30.7484L48.1806 30.374L47.7822 30.0676L47.3838 29.6932L47.0517 29.2848L46.7197 28.7062L46.4541 28.0255L46.2881 27.2767L46.2217 26.698V25.8131H44.296L44.2627 26.1535L43.3995 30.374L43.2667 31.0206L43.2335 31.0547H39.9133L39.9465 30.7824L40.6437 27.4128L40.9757 25.8471H38.884L38.5188 26.4258L38.1203 27.0724L37.1907 28.57L36.3938 29.8634L35.929 30.6122L35.6634 31.0206L35.6302 31.0547H32.808L32.7748 30.9526L32.7416 27.549V25.8131L31.2475 25.8471L30.5834 28.2977L29.853 30.9526L29.8198 31.0547H26.4332L26.4996 30.7143L27.4292 27.4128L27.8609 25.8812L27.8941 25.8131H19.7263L19.6267 26.2215L18.9295 28.6041L18.2654 30.8845L18.199 31.0547H14.8456L14.912 30.7484L15.6424 28.2637L16.3397 25.8812L16.3729 25.8131H10.8281L11.5254 27.2767L11.957 28.2297L12.3222 28.9785L12.7539 29.9315L13.2519 30.9866V31.0547H9.53324L8.57037 29.0806L8.20515 28.2977L7.17588 26.1875L7.04307 25.8812V25.8131H6.57824L6.44543 26.3577L5.9806 27.9233L5.08414 30.9866L5.05094 31.0547H1.96313L2.29516 29.8974L5.08414 20.3673L5.41616 19.2101L5.44937 6.03809ZM5.9474 6.54863V17.5423H9.002L8.70318 18.5294L7.4083 22.9541L7.4415 23.0221L7.80672 22.6477L8.03914 22.3755L8.27155 22.1372L8.50397 21.8649L8.9688 21.3544L9.46683 20.8098L9.83206 20.4014L10.2969 19.8908L10.6621 19.4824L11.1601 18.9378L11.5586 18.4953L12.0234 17.9848L12.3886 17.5764H16.5057L16.2069 17.8827L15.9745 18.155L14.4472 19.7206L14.2148 19.9929L13.1855 21.048L12.9531 21.3203L11.4922 22.8179L11.2598 23.0902L10.1973 24.1794V24.2474H10.1309L10.1641 24.4517L10.5625 25.3026H16.5389L16.9041 24.1113L17.701 21.3884L18.3318 19.2441L18.5974 18.3251V6.54863H5.9474ZM20.7556 6.54863V17.5423H24.3082L25.4039 17.6104L26.0015 17.7125L26.4996 17.8827L26.9976 18.155L27.2632 18.3932L27.562 18.8357L27.7281 19.2101L27.8277 19.5845L27.8609 19.7887V20.8779L27.7281 21.7288L27.562 22.3755L27.3628 22.886L27.0972 23.3965L26.8316 23.7709L26.5328 24.1113L26.2339 24.4176L25.7027 24.792L24.9391 25.2005L24.7731 25.2685V25.3026H28.0269L28.1265 25.0643L28.8569 22.4776L29.7202 19.3803L30.2182 17.6104V17.5423H33.3724L33.4056 17.5083V6.54863H20.7556ZM35.4974 6.54863V25.3026H35.8294L36.0286 25.0303L36.9583 23.5327L37.3567 22.886L38.2864 21.3884L38.6848 20.7417L39.1496 19.9929L39.548 19.3462L40.4777 17.8486L40.6437 17.5764L46.0225 17.5423L45.7901 18.6315L45.1592 21.6947L44.4288 25.2345V25.3026H46.2549L46.3213 25.0983L46.4541 24.3496L46.6865 23.4646L46.9853 22.6477L47.2842 21.967L47.6826 21.2182L48.1806 20.4354V6.54863H35.4974ZM50.3056 6.54863V18.2911L50.6708 18.0869L51.4344 17.6785L52.2313 17.3721L53.0281 17.1339L53.8582 16.9637L54.6218 16.8616L55.0867 16.8276H56.7136L57.6764 16.9297L58.4733 17.0998L59.0377 17.3041L59.569 17.5764L59.9342 17.8146L60.2662 18.1209L60.565 18.5294L60.7975 19.0399L60.9303 19.6185V20.5035L60.7975 21.2863H57.0124L56.9792 20.6736L56.8796 20.3333L56.6804 20.027L56.448 19.7887L56.0495 19.5845L55.6843 19.4824L55.4187 19.4483H54.7214L54.1238 19.5504L53.4266 19.7887L52.8953 20.095L52.4637 20.4354L52.0653 20.8098L51.7664 21.1842L51.4012 21.6947L51.0028 22.4435L50.7372 23.0902L50.538 23.7029L50.372 24.3836L50.3056 24.758V25.3026H53.3934L53.9246 23.1583H60.2994L59.8014 25.2345V25.3026H62.9888V6.54863H50.3056ZM21.4528 19.6866L21.0212 21.3544L20.49 23.3965V23.4646H22.1501L22.8473 23.3625L23.3454 23.1923L23.7438 22.9541L24.0758 22.6137L24.3414 22.1372L24.5406 21.6607L24.7066 21.048L24.7399 20.8779V20.3333L24.607 20.061L24.441 19.9248L24.109 19.7887L23.7438 19.7206L23.2125 19.6866H21.4528ZM32.6752 20.5715L32.1771 22.3414L31.5463 24.6559L31.3803 25.2685L31.4135 25.3026H32.7416V22.7158L32.7084 20.5715H32.6752ZM42.005 20.7417L41.7726 21.1501L41.2746 21.933L40.9093 22.5456L40.5441 23.1242L40.0793 23.873L39.6808 24.5197L39.216 25.2685V25.3026H41.0753L41.1749 25.0303L41.9718 21.2182L42.0382 20.9119V20.7417H42.005ZM50.2391 25.8131L50.2724 26.3917L50.4052 26.9363L50.6708 27.4809L50.9032 27.7872L51.1688 28.0595L51.6004 28.3318L52.0985 28.536L52.5301 28.6381L53.2605 28.7062L54.1238 28.6721L54.9871 28.57L55.4187 28.502L55.5183 28.3999L56.1159 25.9493V25.8131H50.2391Z" fill="#3A3A3A"/>
</svg>
