<svg width="46" height="32" viewBox="0 0 46 32" fill="none" xmlns="http://www.w3.org/2000/svg">
<g clip-path="url(#clip0_1169_8376)">
<path d="M1.52588e-05 21.6774V19.2237H2.06755V7.85836H1.52588e-05V5.4043H4.90227V19.2233H6.96983V21.677L1.52588e-05 21.6774Z" fill="#3A3A3A"/>
<path d="M17.4645 26.8046V20.4747H16.8849L16.8174 20.5597C16.2851 21.2354 15.3675 21.9675 13.6223 21.9675C10.6827 21.9675 8.49592 19.3594 8.49592 16.0377C8.49592 12.7161 10.8833 10.085 13.8245 10.085C15.4197 10.085 16.2503 10.6934 16.8456 11.3892L16.9131 11.4669H17.4873V10.3746H20.2996V26.8046H17.4645ZM14.4313 19.3351C16.1219 19.3351 17.5088 18.1237 17.5088 16.0156C17.5088 14.2414 16.2893 12.7407 14.4761 12.7407C12.7598 12.7407 11.3977 14.0503 11.3977 16.0156C11.3977 17.9808 12.7391 19.3351 14.4313 19.3351Z" fill="#3A3A3A"/>
<path d="M27.6928 21.9674C24.752 21.9674 22.3866 19.4032 22.3866 16.015C22.3866 12.6268 24.5739 10.0844 27.5126 10.0844C29.2384 10.0844 30.1775 10.8407 30.7106 11.4959L30.7781 11.5785H31.3556V5.4043H34.1899V21.6774H31.3556V20.5859H30.7732L30.7065 20.673C30.1762 21.3672 29.2827 21.9674 27.6928 21.9674ZM28.3444 19.3346C30.1808 19.3346 31.3999 17.8106 31.3999 16.0372C31.3999 13.9528 29.989 12.7398 28.3216 12.7398C26.6543 12.7398 25.2661 14.0481 25.2661 16.0372C25.2661 18.0263 26.653 19.3346 28.3444 19.3346Z" fill="#3A3A3A"/>
<path d="M38.9155 9.34057L37.7136 5.40723H38.4785L39.4618 8.64131L40.4615 5.40723H41.2264L40.0245 9.34057H38.9155Z" fill="#3A3A3A"/>
<path d="M43.547 9.42341C43.1536 9.42341 42.814 9.33782 42.5281 9.16665C42.244 8.99547 42.0246 8.75601 41.8698 8.44826C41.7169 8.14052 41.6404 7.78269 41.6404 7.37479C41.6404 6.96689 41.7169 6.60906 41.8698 6.30131C42.0246 5.99356 42.244 5.7541 42.5281 5.58293C42.814 5.41176 43.1536 5.32617 43.547 5.32617C43.9986 5.32617 44.3774 5.43816 44.6833 5.66215C44.991 5.88612 45.2077 6.18932 45.3334 6.57173L44.5849 6.77932C44.5121 6.54078 44.3891 6.35594 44.2162 6.22483C44.0432 6.0919 43.8201 6.02543 43.547 6.02543C43.2975 6.02543 43.089 6.08097 42.9215 6.19206C42.7558 6.30313 42.631 6.45974 42.5472 6.66187C42.4635 6.864 42.4216 7.10164 42.4216 7.37479C42.4216 7.64794 42.4635 7.88558 42.5472 8.08771C42.631 8.28984 42.7558 8.44645 42.9215 8.55752C43.089 8.66861 43.2975 8.72415 43.547 8.72415C43.8201 8.72415 44.0432 8.65768 44.2162 8.52475C44.3891 8.39182 44.5121 8.20698 44.5849 7.97025L45.3334 8.17785C45.2077 8.56026 44.991 8.86345 44.6833 9.08744C44.3774 9.31142 43.9986 9.42341 43.547 9.42341Z" fill="#3A3A3A"/>
</g>
<defs>
<clipPath id="clip0_1169_8376">
<rect width="45.3333" height="21.8667" fill="white" transform="translate(0 5.06641)"/>
</clipPath>
</defs>
</svg>
