<svg width="152" height="32" viewBox="0 0 152 32" fill="none" xmlns="http://www.w3.org/2000/svg">
<g clip-path="url(#clip0_1169_8328)">
<mask id="mask0_1169_8328" style="mask-type:luminance" maskUnits="userSpaceOnUse" x="0" y="2" width="151" height="27">
<path d="M150.468 2.46191H0.0372734V28.6609H150.468V2.46191Z" fill="white"/>
</mask>
<g mask="url(#mask0_1169_8328)">
<mask id="mask1_1169_8328" style="mask-type:luminance" maskUnits="userSpaceOnUse" x="0" y="2" width="151" height="27">
<path d="M150.468 2.46191H0.0369492V28.6609H150.468V2.46191Z" fill="white"/>
</mask>
<g mask="url(#mask1_1169_8328)">
<path d="M36.2531 10.2949H39.8636L40.2647 11.0949L42.0699 16.1945L42.8721 18.6943L43.1729 19.3943L43.3736 19.2942L44.6774 15.1946L46.4825 10.3949H50.0928V22.494H47.7863V14.2947L47.8864 12.1948L47.4853 12.3948L46.7834 14.8946L45.5799 18.1945L44.2761 21.4941L44.0756 21.7942H41.8693L40.7661 18.8943L39.7633 16.0945L38.6601 12.4948L38.5598 12.2948L38.259 12.1948V22.494H36.1529V10.3949L36.2531 10.2949Z" fill="#3A3A3A"/>
<path d="M18.2024 10.3945L19.3049 10.6953L20.3078 11.1953L20.9104 11.8945L21.3108 12.7949L21.4114 13.1943V14.7949L21.1106 15.8945L20.4084 16.7949L19.6057 17.3945L19.1047 17.5947H18.8039L19.1047 18.0947L20.509 19.9941L21.7121 21.5938L22.2141 22.3945V22.4941H19.5061L18.8039 21.5938L17.7004 19.8945L16.4973 18.0947L16.3967 17.9941H14.1907L14.0901 22.4941H11.884V10.3945L13.0871 10.2949H15.3938L18.2024 10.3945ZM14.1897 12.2939L14.0891 12.3945V15.8936L14.1897 15.9941H17.4993L18.2014 15.7939L18.803 15.3936L19.2043 14.5938V13.5938L19.1037 13.2939L18.7024 12.6943L17.6994 12.2939H14.1897Z" fill="#3A3A3A"/>
<path d="M6.26727 10.3945L7.37078 10.6953L8.17352 11.0947L8.6745 11.4951L9.27606 12.4951L9.57684 13.5947V15.1943L9.27606 16.1943L8.77508 16.9941L8.07293 17.6943L7.07 18.1943L5.66571 18.4941H2.45672V22.4941H0.150082V10.6953L0.250668 10.2949H3.86102L6.26727 10.3945ZM2.55633 12.2939L2.45575 12.3945V16.4941L2.55633 16.5938H5.56512L6.56805 16.2939L7.06903 15.7939L7.36981 14.9941V13.8936L7.16961 13.2939L6.56805 12.5938L5.66473 12.2939H2.55633Z" fill="#3A3A3A"/>
<path d="M77.0705 10.2949H78.9761L79.3769 10.7949L80.9816 13.6947L81.9848 15.4946L82.7869 17.0944L83.6894 18.9943L84.0908 19.8942V20.0943H84.4915L84.3916 19.1942L84.2911 16.9945V10.3949L84.4915 10.2949L86.3972 10.3949V22.494H83.3886L82.7869 21.5941L81.1819 18.6943L79.8788 16.3945L78.7751 14.0946L78.0735 12.4948L77.6721 12.3948L77.7727 12.7948L77.8726 14.6946L77.9731 18.0944V22.494H75.7666V10.3949L77.0705 10.2949Z" fill="#3A3A3A"/>
<path d="M24.5196 10.2949H33.2447L33.345 10.3949L33.2447 12.3948H26.8263V15.2946H32.643V17.2945H26.8263V20.4942H33.2447V22.494H24.5196V10.2949Z" fill="#3A3A3A"/>
<path d="M117.286 10.0879H119.091L120.496 10.3879L121.498 10.8879L122.2 11.5878L122.902 12.9877L123.002 13.5877L122.501 13.7877L120.796 14.0876L120.094 12.6878L119.492 12.1877L118.69 11.9878H117.487L116.484 12.2878L115.983 12.7877L115.882 13.0877V13.8877L116.283 14.4876L117.286 14.9876L120.595 15.7875L122.2 16.5875L122.902 17.3874L123.303 18.3874V19.7872L123.002 20.7871L122.602 21.3871L121.899 21.9871L121.097 22.387L119.894 22.6869H117.086L115.581 22.287L114.578 21.6872L113.877 20.9872L113.275 19.7872L113.074 18.7873L114.779 18.3874H115.28L115.782 19.5873L116.283 20.1871L116.985 20.5871L117.888 20.7871H119.292L120.395 20.3872L120.696 20.2872L120.896 19.7872V18.7873L120.595 18.2873L119.793 17.7874L118.188 17.3874L116.484 16.9874L115.28 16.4875L114.378 15.8875L113.776 14.9876L113.576 14.2876V12.8877L113.976 11.7878L114.679 10.9878L115.882 10.3879L117.286 10.0879Z" fill="#3A3A3A"/>
<path d="M102.243 10.2949H110.868V12.3948H104.55L104.449 15.2946H110.266V17.2945L104.449 17.3944V20.4942H110.868V22.494H102.143V10.3949L102.243 10.2949Z" fill="#3A3A3A"/>
<path d="M90.1076 10.2949H90.6088L91.0102 11.1949L93.5169 18.5944L94.0188 20.2943V20.4942L94.52 20.3942L95.7235 16.7944L97.8295 10.5949L98.1303 10.2949H100.236L100.337 10.4949L99.2334 13.3947L96.9269 19.5943L95.824 22.494H92.7148L90.6088 16.8945L88.6032 11.4948L88.2019 10.3949L90.1076 10.2949Z" fill="#3A3A3A"/>
<path d="M126.111 10.2949H134.434L134.836 10.3949L134.735 12.4948H131.125L131.025 22.494H128.718V12.4948H125.008L124.907 12.3948V10.6949L125.008 10.3949L126.111 10.2949Z" fill="#3A3A3A"/>
<path d="M141.456 10.2949H144.063V22.494H141.355V12.0948L141.456 10.2949Z" fill="#3A3A3A"/>
<path d="M54.8074 10.2949H57.0137V19.9942L56.7128 20.9941L56.2113 21.7942L55.3088 22.3941L54.7071 22.594H52.4004L52.1999 22.494V21.2941L52.3002 20.5942H53.6039L54.3059 20.2943L54.6067 19.7942L54.7071 18.8943V12.5947L54.8074 10.2949Z" fill="#3A3A3A"/>
<path d="M61.2251 10.2949H62.1277L62.5288 10.3949V22.494H60.2223V10.3949L61.2251 10.2949Z" fill="#3A3A3A"/>
<path d="M70.2511 10.3857H72.5582V22.485H70.2511V10.3857Z" fill="#3A3A3A"/>
<path d="M147.773 15.083H150.481V22.4825L150.381 22.5824H147.874L147.773 22.4825V15.083Z" fill="#3A3A3A"/>
<path d="M144.664 10.2949H147.272V16.7944H144.565V10.5949L144.664 10.2949Z" fill="#3A3A3A"/>
<path d="M144.565 17.2881H147.272V22.4877L147.172 22.5877H144.664L144.565 22.4877V17.2881Z" fill="#3A3A3A"/>
<path d="M147.874 10.2949H150.481V14.5946H147.773V10.3949L147.874 10.2949Z" fill="#3A3A3A"/>
</g>
</g>
</g>
<defs>
<clipPath id="clip0_1169_8328">
<rect width="151.333" height="28" fill="white" transform="translate(0 2)"/>
</clipPath>
</defs>
</svg>
