<svg width="80" height="80" viewBox="0 0 80 80" fill="none" xmlns="http://www.w3.org/2000/svg">
<rect width="80" height="80" rx="11.9048" fill="#0A0A0A"/>
<path d="M36.0376 52.8386C32.2281 52.8386 29.1668 51.9769 26.8539 50.2535C24.541 48.4848 23.3845 46.0359 23.3845 42.9066C23.3845 39.7774 24.3596 37.3284 26.3097 35.5597C28.2598 33.791 31.2303 32.5211 35.2213 31.7501L47.2621 29.3692C47.2621 26.7842 46.6725 24.8567 45.4934 23.5869C44.3142 22.2717 42.5682 21.6141 40.2553 21.6141C38.1691 21.6141 36.5138 22.113 35.2893 23.1107C34.1101 24.0631 33.2938 25.4463 32.8403 27.2603L23.9968 26.8522C24.7224 22.9973 26.4911 20.0495 29.3029 18.0086C32.1147 15.9225 35.7655 14.8794 40.2553 14.8794C45.4253 14.8794 49.3256 16.1946 51.956 18.825C54.6317 21.41 55.9696 25.1288 55.9696 29.9814V43.1787C55.9696 44.1311 56.1283 44.7887 56.4458 45.1515C56.8086 45.5143 57.3301 45.6957 58.0104 45.6957H59.1668V52.0223C58.8947 52.113 58.4412 52.181 57.8063 52.2263C57.2167 52.2717 56.6045 52.2944 55.9696 52.2944C54.473 52.2944 53.1351 52.0676 51.956 51.6141C50.7768 51.1152 49.8698 50.2762 49.2349 49.0971C48.5999 47.8726 48.2825 46.2173 48.2825 44.1311L49.0308 44.6753C48.668 46.2626 47.8743 47.6912 46.6498 48.961C45.4707 50.1855 43.9741 51.1379 42.16 51.8182C40.346 52.4984 38.3052 52.8386 36.0376 52.8386ZM37.8063 46.5121C39.7564 46.5121 41.4344 46.1266 42.8403 45.3556C44.2462 44.5846 45.3346 43.5189 46.1056 42.1583C46.8766 40.7978 47.2621 39.1878 47.2621 37.3284V35.2876L37.8743 37.1923C35.9242 37.6005 34.5183 38.2127 33.6566 39.0291C32.8403 39.8 32.4321 40.8204 32.4321 42.0903C32.4321 43.4962 32.8857 44.5846 33.7927 45.3556C34.7451 46.1266 36.0829 46.5121 37.8063 46.5121Z" fill="white"/>
<rect x="63.7756" y="57.3965" width="8.5034" height="46.7687" transform="rotate(90 63.7756 57.3965)" fill="url(#paint0_linear_583_1230)"/>
<defs>
<linearGradient id="paint0_linear_583_1230" x1="97.9221" y1="71.774" x2="39.5552" y2="78.9311" gradientUnits="userSpaceOnUse">
<stop stop-color="#A1CCA5"/>
<stop offset="1" stop-color="#0C92B4"/>
</linearGradient>
</defs>
</svg>
