<svg width="138" height="24" viewBox="0 0 138 24" fill="none" xmlns="http://www.w3.org/2000/svg">
<path d="M6.54673 0.0181561C7.86632 -0.00329812 9.18622 -0.00576781 10.5059 0.0109016C10.8875 1.02743 12.8549 8.16241 12.7996 8.93777C12.145 9.69229 7.0926 8.88907 5.95965 9.33537C5.53977 9.50083 6.85357 13.7225 7.16351 14.1216C7.66633 14.3654 9.89952 14.2491 10.7033 14.2999C11.2513 15.5092 11.4014 17.1241 11.7944 18.4067C11.9634 18.9581 12.0725 19.5782 12.8331 19.5158C13.3078 19.477 14.739 19.7151 14.9515 19.1613C15.5394 17.6293 15.6993 15.7483 16.3994 14.2711C17.1099 14.2418 19.6674 14.4054 19.934 14.0667C20.2703 13.6392 21.0908 10.0522 21.0965 9.54937C20.5505 8.79137 17.5745 9.54921 16.7522 9.14197C16.2749 8.90559 15.5696 5.84528 15.768 5.45687C15.946 5.33501 16.4646 5.29434 16.6679 5.31541C18.092 5.46304 26.3775 5.06197 27.0104 5.48095C27.0222 5.51019 27.0333 5.53844 27.042 5.56877C27.176 6.03783 24.8893 14.5564 24.4807 15.2688C23.8075 15.7311 22.134 15.2115 21.287 15.4087C20.41 15.6127 20.1286 19.5495 19.5773 20.3896C19.1783 20.9978 17.4333 20.543 16.7709 20.6793C15.6369 20.9127 16.9464 22.991 16.4622 23.6875C16.3652 23.8272 16.2688 23.8717 16.1036 23.9018C15.3042 24.0477 11.1163 24.0701 10.5569 23.6933C10.2735 22.8926 11.2474 20.7995 10.3834 20.7124C7.8792 20.4597 7.45786 21.5369 6.89593 18.3377C6.82487 17.933 6.38462 15.8823 6.00834 15.5697C5.3816 15.049 3.20875 15.7533 2.52414 15.2487C1.77604 13.9881 1.354 10.6106 0.765075 9.03547C0.485617 8.28805 0.0266187 6.31897 0 5.58575C0.313946 4.92985 6.27128 5.65235 7.26397 5.18306C7.90575 4.33909 5.71576 0.878561 6.54673 0.0181561Z" fill="#3A3A3A"/>
<path d="M83.4241 8.95722C85.5165 8.94734 87.9153 8.81369 89.9661 9.12129C92.9026 9.56179 94.2751 13.1654 91.4319 14.9768L91.4651 14.9934C93.2327 15.9202 93.7575 17.6995 92.8108 19.4582C91.3996 21.6555 88.994 21.3827 86.718 21.3781L83.4172 21.3674L83.4241 8.95722ZM90.76 17.4709C90.6433 15.7229 87.808 16.3026 86.6438 16.2033C86.4324 16.1853 86.1132 16.2023 85.8987 16.2014L85.8958 19.0246C87.0362 19.0321 89.4726 19.1874 90.3459 18.6242C90.6985 18.2339 90.7963 18.0255 90.76 17.4709ZM90.4504 12.5061C90.5844 10.7242 87.1484 11.1868 85.9016 11.2004L85.9036 13.8459C87.0717 13.8702 89.0093 14.0361 90.0129 13.4572C90.329 13.1546 90.4173 12.9483 90.4504 12.5061Z" fill="#3A3A3A"/>
<path d="M105.533 8.95401C107.67 8.94459 110.533 8.72566 112.571 9.27725C115.135 9.97111 116.045 13.729 114.115 15.5468C113.518 16.1096 113.218 16.3212 112.48 16.6708C113.444 18.2534 114.532 19.8082 115.558 21.3603L113.7 21.369L112.584 21.371C111.611 19.9469 110.62 18.3556 109.692 16.8954L108.078 16.8925L108.074 21.369L105.533 21.3681V8.95401ZM112.643 12.8036C112.511 10.8434 109.495 11.2526 108.078 11.2714C108.077 12.36 108.059 13.4966 108.078 14.581C109.35 14.586 111.141 14.7832 112.143 14.0644C112.494 13.6416 112.682 13.3768 112.643 12.8036Z" fill="#3A3A3A"/>
<path d="M117 8.94745C119.154 8.96211 121.658 8.77053 123.731 9.17792C126.16 9.65506 127.383 12.7583 126.123 14.8322C125.555 15.7645 124.877 16.1585 123.969 16.6633C124.35 17.4892 126.416 20.4673 127.036 21.3615L125.042 21.3693L124.095 21.3703C123.008 19.8565 122.169 18.3562 121.126 16.8947H119.534L119.537 21.3693L116.991 21.3664L117 8.94745ZM120.957 11.2609C120.487 11.261 120.006 11.2704 119.536 11.2756L119.544 14.5734C120.89 14.5871 122.535 14.7869 123.652 14.0549C124.012 13.6227 124.072 13.4141 124.191 12.8625C123.669 11.1355 122.534 11.2608 120.957 11.2609Z" fill="#3A3A3A"/>
<path d="M51.1139 8.95312L59.9665 8.95714L59.9687 11.2699L53.6596 11.2708L53.6538 13.8097L58.3686 13.8093L58.3662 16.2012C57.4002 16.2145 54.734 16.1049 53.7019 16.275C53.6704 16.2803 53.6622 16.5016 53.6559 16.5687L53.6543 19.0271L59.9718 19.0273L59.9685 21.369L51.1134 21.3691L51.1139 8.95312Z" fill="#3A3A3A"/>
<path d="M94.7992 8.94531C97.701 8.97865 100.653 8.95179 103.559 8.95326L103.557 11.2705L97.2929 11.272L97.2883 13.8105L102.011 13.8112L102.009 16.2066C100.664 16.2001 98.7172 16.1327 97.4187 16.2238C97.2697 16.3537 97.3145 16.3132 97.296 16.5691L97.289 19.0209C99.2881 19.0752 101.538 19.0247 103.559 19.0258L103.558 21.3696L94.8038 21.3674L94.7992 8.94531Z" fill="#3A3A3A"/>
<path d="M65.6336 8.74253C67.8048 8.38869 69.7877 9.5537 71.2205 11.0615C70.6789 11.5002 69.8664 12.0783 69.4513 12.5849C68.2685 11.4424 67.2894 10.8515 65.5495 11.0804C64.9264 11.1624 63.9615 11.9539 64.1623 12.4971C64.6388 13.7856 67.2138 13.975 68.3356 14.4191C69.0115 14.6867 69.4629 14.7854 70.0539 15.1985C71.6718 16.2375 71.864 18.2914 70.81 19.8217C70.0377 20.9421 68.7608 21.3648 67.463 21.5939C67.2531 21.6154 67.0425 21.6285 66.8311 21.6331C64.7555 21.6693 62.9009 20.805 61.423 19.384C61.8097 19.0094 62.7913 18.2791 63.2509 17.916C63.5317 18.1483 63.7973 18.3637 64.1392 18.5953C65.281 19.3694 69.074 19.9003 68.8587 17.6785C68.7739 16.7997 67.3226 16.492 66.5911 16.2891C65.3142 15.935 63.8594 15.6573 62.7709 14.8277C61.3216 13.7568 61.5349 11.5422 62.5031 10.2334C63.1975 9.29478 64.525 8.87759 65.6336 8.74253Z" fill="#3A3A3A"/>
<path d="M46.9931 8.94043L49.6239 8.95293L48.9168 11.0911C48.8366 11.4058 48.7149 11.8198 48.5993 12.1207C47.6033 14.7104 46.8065 17.3605 45.8359 19.9579C45.664 20.418 45.4802 20.897 45.3583 21.3699H41.3465C41.2234 20.8205 40.2694 18.266 40.0188 17.5784C39.0068 14.8021 38.083 11.6713 37.0208 8.95339L39.6847 8.94853C39.9285 9.47023 40.1475 10.2072 40.3655 10.758C41.1013 12.6164 41.6077 14.5527 42.3281 16.4167C42.5563 17.0073 42.8946 18.1241 43.173 18.6165L43.435 18.6623C43.7814 18.4685 46.5836 10.052 46.9931 8.94043Z" fill="#3A3A3A"/>
<path d="M127.326 8.94629L130.022 8.95331C130.493 10.2011 130.947 11.4547 131.385 12.7141C131.606 13.3716 131.997 14.9809 132.434 15.4358C132.804 15.5601 133.011 15.2013 133.117 14.8784C133.767 12.8826 134.444 10.92 135.171 8.94899L137.822 8.95686C137.254 10.7358 136.647 12.5021 136.002 14.2545C135.93 14.4331 135.851 14.6869 135.796 14.8726C135.163 17.0435 134.162 19.1833 133.582 21.3612C132.671 21.3803 131.704 21.3633 130.787 21.3608C131.224 20.4889 131.733 18.855 132.03 17.9026L130.401 17.8915C129.978 16.2334 129.238 14.4119 128.676 12.7857C128.22 11.4658 127.883 10.2378 127.326 8.94629Z" fill="#3A3A3A"/>
<path d="M72.2366 8.95312L81.6982 8.9539C81.6897 9.72131 81.6975 10.5015 81.6982 11.2701L78.2069 11.2716L78.2139 17.9386L78.217 21.3689L75.7102 21.3688L75.714 11.2702L72.2359 11.2723L72.2366 8.95312Z" fill="#3A3A3A"/>
</svg>
