<svg width="90" height="28" viewBox="0 0 90 28" fill="none" xmlns="http://www.w3.org/2000/svg">
<path d="M13.564 6.33008L16.0033 6.33603L16.0045 16.3797L23.4183 9.85277C24.0018 10.4895 24.5748 11.1357 25.1371 11.7913C24.5132 12.3945 23.6653 13.0985 23.0036 13.6799C21.4751 15.0112 19.9552 16.3523 18.444 17.7032C20.859 17.7823 23.4011 17.7127 25.833 17.7372L25.8357 20.3179L15.4 20.319L3.17029 20.3144L3.19478 17.745C5.6441 17.666 8.5432 17.7232 11.0205 17.7164L4.29803 11.7983C4.82295 11.1536 5.44379 10.4806 5.99939 9.85437C6.66253 10.3499 7.87715 11.4856 8.53393 12.0637L13.3692 16.3099C13.416 13.9572 13.3594 11.579 13.382 9.22792C13.3866 8.75645 13.3442 6.73402 13.4028 6.36585L13.564 6.33008Z" fill="#3A3A3A"/>
<path d="M63.0277 8.33301C63.9388 8.34938 65.1138 8.4762 65.8675 9.10683C66.1674 9.35802 66.4673 9.81529 66.8296 10.0569C67.0173 9.97892 67.4305 9.49377 67.5971 9.3159C68.3285 8.57739 69.5051 8.34142 70.5107 8.33392C74.8883 8.30124 74.5375 11.763 74.5392 14.863L74.5323 20.3612C73.4695 20.3715 72.4068 20.3704 71.3445 20.358L71.3491 15.3763C71.3497 14.2079 71.5529 12.2163 70.7522 11.3197C70.1358 10.6298 68.5757 10.7439 67.9679 11.4298C66.9183 12.6148 67.1243 14.7388 67.126 16.2379L67.1312 19.1952L67.118 20.3645L63.9606 20.3634L63.9623 15.6433C63.9617 14.1087 64.3761 10.9259 62.1818 10.8585C59.3329 10.7709 59.7209 14.5006 59.7226 16.4202L59.7169 20.3646L56.5268 20.3631L56.5326 8.53852C57.3475 8.5241 58.1631 8.52244 58.978 8.5336C59.1154 9.07467 59.2968 9.661 59.4525 10.2015C60.5771 8.80579 61.2295 8.45108 63.0277 8.33301Z" fill="#3A3A3A"/>
<path d="M48.2644 8.33001C48.2964 8.32177 48.4298 8.30913 48.4687 8.30718C49.9407 8.23919 51.5809 8.43337 52.7444 9.41472C54.0985 10.5564 53.9114 12.3914 53.9108 13.9911L53.9073 18.0485C53.9068 18.7111 53.8776 19.6503 53.9279 20.2922L53.9337 20.356C53.1897 20.3675 52.4457 20.3684 51.7017 20.3587C51.4996 19.7834 51.2524 19.2506 51.0567 18.65C50.1175 19.7026 49.4708 20.3558 48.0034 20.5127C46.6808 20.6542 45.551 20.5854 44.4831 19.7417C43.1536 18.509 42.9194 15.8078 44.1872 14.4914C45.7061 12.9149 48.7274 13.084 50.7614 13.0193C50.7533 12.5363 50.7779 11.8784 50.5439 11.461C49.6917 9.93941 46.6957 10.8967 45.5224 11.53C45.2357 10.8388 44.8208 10.045 44.4854 9.36464C45.6294 8.68187 46.9652 8.46033 48.2644 8.33001ZM47.2067 18.0386C48.5076 18.5462 50.0162 18.1771 50.5834 16.7972C50.7865 16.302 50.7911 15.5058 50.7465 14.9704L50.6795 14.88L50.5061 14.8572C48.9757 14.9071 46.5549 14.8006 46.6619 16.9886C46.6859 17.4753 46.8004 17.7488 47.2067 18.0386Z" fill="#3A3A3A"/>
<path d="M80.9948 8.33101C82.3008 8.15308 84.2593 8.70273 85.464 9.23875C85.1967 9.75824 84.7252 10.9717 84.4991 11.5389C83.5582 11.0635 82.1869 10.6155 81.1419 10.6707C80.7367 10.6921 80.2297 10.7196 79.9527 11.0504C79.8473 11.1763 79.7134 11.4107 79.7569 11.5722C80.011 12.5136 82.2173 13.0365 83.0517 13.5129C83.6011 13.7652 84.0573 14.0323 84.5386 14.4111C85.911 15.4909 85.9064 17.8957 84.8058 19.1689C83.8707 20.2504 82.3512 20.4749 80.9605 20.5642C79.2544 20.6131 78.2082 20.4307 76.6207 19.8865L76.6338 17.2806C77.8174 17.7393 83.03 19.5571 82.3438 16.7165C80.715 14.9567 76.833 15.2042 76.631 11.9873C76.4535 9.15434 78.6403 8.47895 80.9948 8.33101Z" fill="#3A3A3A"/>
<path d="M33.0493 8.53631C35.8315 8.45092 39.0501 8.52767 41.8693 8.53007C41.8795 9.21696 41.8782 9.90402 41.8653 10.5909C41.4224 11.265 40.8085 12.0294 40.33 12.6965C39.0807 14.4384 37.7089 16.1673 36.4877 17.923L42.0649 17.9217C42.072 18.3975 42.1084 19.9136 42.0303 20.3218L41.9294 20.3664L32.713 20.3642C32.7075 19.739 32.7116 19.1138 32.7254 18.4887C32.9582 18.121 33.2694 17.7051 33.5368 17.3568C35.1379 15.2707 36.6298 13.0304 38.2657 10.9774C36.8729 10.891 34.5091 10.963 33.0501 10.9763L33.0493 8.53631Z" fill="#3A3A3A"/>
</svg>
